<svg xmlns="http://www.w3.org/2000/svg" xmlns:xlink="http://www.w3.org/1999/xlink" viewBox="0 0 264.04 264.04"><defs><radialGradient id="radial-gradient" cx="132.02" cy="132.02" r="132.02" gradientTransform="translate(132.02 -54.68) rotate(45)" gradientUnits="userSpaceOnUse"><stop offset="0" stop-color="#fbff00"/><stop offset="0.34" stop-color="#fb9b00"/><stop offset="1" stop-color="#fbb300" stop-opacity="0"/></radialGradient></defs><title>Asset 2</title><g style="isolation:isolate"><g id="Layer_2" data-name="Layer 2"><g id="OBJECTS"><circle cx="132.02" cy="132.02" r="132.02" transform="translate(-54.68 132.02) rotate(-45)" style="opacity:0.7000000000000001;fill:url(#radial-gradient)"/><path d="M166.58,188.33c-17.18,6.25-33.32-3.64-29.29-6s10.55-6.51,11.59-10.81.13-6-6.51-4.16c-15.23,5.2-19.14-4.43-20.57-14.32s4.43-14.19-4.56-9.51c-27.72,13.93-39.57-10.28-35-36.84s25-16.79,25-16.79c.39-17.58,16-28.51,27.34-26.56s14.06,2.74,15.62,0c.82-1.43,5.3-3.62,9.38-5.38A78.37,78.37,0,1,0,210.5,131.4c0-1.6-.07-3.18-.16-4.76C205.16,167.51,183.6,182.15,166.58,188.33Z" style="fill:#f5b807"/><path d="M147.84,102.61c-1.17,19.53,20.11,35.54,46.67,21.29,6.72-4,8.62-16.71,8.16-26.67A78.66,78.66,0,0,0,176.76,67C165.84,64.75,150.57,68,147.84,102.61Z" style="fill:#f5b807"/><path d="M194.51,123.9c-26.56,14.25-47.84-1.76-46.67-21.29,2.73-34.63,18-37.86,28.92-35.61a77.86,77.86,0,0,0-17.2-9c-4.08,1.76-8.56,4-9.38,5.38-1.56,2.74-4.3,2-15.62,0s-26.95,9-27.34,26.56c0,0-20.44-9.77-25,16.79s7.29,50.77,35,36.84c9-4.68,3.13-.39,4.56,9.51s5.34,19.52,20.57,14.32c6.64-1.83,7.55-.13,6.51,4.16s-7.55,8.46-11.59,10.81,12.11,12.23,29.29,6c17-6.18,38.58-20.82,43.76-61.69a77.9,77.9,0,0,0-7.67-29.41C203.13,107.19,201.23,119.89,194.51,123.9Z" style="fill:#f8d00c"/><path d="M210.34,126.64A78.51,78.51,0,0,0,159.56,58c-1.43-.53-2.89-1-4.35-1.46.49.9,1,1.83,1.45,2.76,1.64,3.23,3.18,6.63,4.56,10.17,6.46,16.55,9.51,36.36,3.85,58.34a104.91,104.91,0,0,1-6.65,18.37A69.49,69.49,0,0,1,143.76,167C125,185.13,98.19,188.24,72.7,182.46A78.35,78.35,0,0,0,210.5,131.4C210.5,129.8,210.43,128.22,210.34,126.64Z" style="opacity:0.25;mix-blend-mode:overlay"/><path d="M133.89,94A35.34,35.34,0,0,1,124,118.55a39.46,39.46,0,0,1-3.17,2.9,35.47,35.47,0,0,1-10.84,6,34.5,34.5,0,0,1-5.38,1.38c-.6.09-1.19.18-1.79.25a33.41,33.41,0,0,1-4.27.27,36.32,36.32,0,0,1-4.07-.24c-.81-.09-1.61-.22-2.4-.37A35.27,35.27,0,0,1,68.62,112.8c-.33-.52-.64-1.06-1-1.6A35.45,35.45,0,0,1,63.21,94c0-.36,0-.71,0-1a78.68,78.68,0,0,1,39.18-34.08,34.61,34.61,0,0,1,11.26,3.18c.3.14.57.27.85.42a34.78,34.78,0,0,1,8.28,5.83A35.18,35.18,0,0,1,133.89,94Z" style="fill:#fff;opacity:0.30000000000000004;mix-blend-mode:overlay"/></g></g></g></svg>