<svg xmlns="http://www.w3.org/2000/svg" viewBox="0 0 218.91 220.72"><title>Asset 1</title><g id="Layer_2" data-name="Layer 2"><g id="ARTBOARD_2" data-name="ARTBOARD 2"><path d="M1169.46,160.1c1.6-.67,4.09.09,5.82,0,3.53-.17,7.81-2,9.8,2.31a.57.57,0,0,0,.08.13,106.13,106.13,0,0,0-12.87-.8c-1.89,0-3.78.07-5.66.16A8.61,8.61,0,0,1,1169.46,160.1Z" transform="translate(-1060.37 -157.31)" style="fill:#fff"/><path d="M1076.62,214.42c2.08-2.93,3.58-5.55,6.8-7.4l2.8-1.57a107.22,107.22,0,0,0-12,21.14c-.17-.31-.34-.62-.53-1C1071.26,221.44,1074.27,217.74,1076.62,214.42Z" transform="translate(-1060.37 -157.31)" style="fill:#fff"/><path d="M1116.17,364c-3.17-1.83-5.28-3.2-7.1-6.52-.85-1.55-1.47-3.22-2.17-4.84,1.43,1.11,2.87,2.19,4.35,3.23a107.79,107.79,0,0,0,16.07,9.25C1123,367.48,1120.41,366.49,1116.17,364Z" transform="translate(-1060.37 -157.31)" style="fill:#fff"/><path d="M1276.57,302.71c-.24,1.71-1.52,3.5-2,5.19-1.24,4.14-.65,9.46-6,10a7.08,7.08,0,0,0-2,.54,106,106,0,0,0,8.72-22C1276,298.53,1277,300,1276.57,302.71Z" transform="translate(-1060.37 -157.31)" style="fill:#fff"/><path d="M1217.63,361.67v0c-.65.25-1.28.5-1.91.71-1.65.56-4.45.15-5,2.28a.26.26,0,0,0,.31.32c1.94-.38,4-.55,5.87-1.11l.8-.24c-.83,1.31-1.53,2.68-2.33,4-1.63,2.73-5.3,2.92-7.91,4-3.54,1.52-7.5,5.42-11,2a8.33,8.33,0,0,0-2.33-1.62,23.83,23.83,0,0,0,4.75-2.28.39.39,0,0,0-.19-.72c-2.41-.17-5,.79-7.29,1.35a10.94,10.94,0,0,1-1.41.25l0-.13a103.78,103.78,0,0,1-111.5-58c.16-1.79-1-3.44-1.78-5.05-1-2.16-2.55-4.32-3.11-6.64a.4.4,0,0,0-.77,0c-.63,1.92.39,3.53,1.18,5.27a15.73,15.73,0,0,0-3.11-1.09c-4.22-1.15-4-11.53-4.82-15.18-1.21-5.33-5.65-8.74-1-14.05a13.61,13.61,0,0,0,1.19-1.58c.18,1.2.44,2.38.7,3.52.55,2.42.72,5.06,2.09,7.2a.46.46,0,0,0,.79-.46c-.95-2.23-.47-4.93-.87-7.3a47.68,47.68,0,0,1-.41-4.94h.12c0-1.26-.07-2.56-.07-3.85a103.85,103.85,0,0,1,38.91-81,.94.94,0,0,0,.44,0,5.2,5.2,0,0,0,2.23-1.49,26.24,26.24,0,0,1,3.93-2.56,16.25,16.25,0,0,0,3-2.15c.93-.89,1.65-2.44,3-2.84a.44.44,0,0,0,0-.84c-2.46-.71-4.63,2.19-6.61,3.24l-.1,0a10.32,10.32,0,0,0,.84-4.09c.26-4.6,10.2-6.54,14-8.27,4.89-2.25,7.54-7.18,13.54-3.79a8.91,8.91,0,0,0,4.35,1.34l0,.12c-1,.29-1.84.58-2.49.77-1.6.46-4.16,1.11-4.42,3.06,0,.24.26.31.43.24a26.47,26.47,0,0,1,5.71-1.72c1.54-.27,3.07-.59,4.61-.88s2.52-.07,3.65-1a.44.44,0,0,0,.13-.18,103.64,103.64,0,0,1,84.28,21.8l0,0c.37.34.75.67,1.11,1,2,1.94,3.38,4.2,5.67,5.81.26.19.59-.17.43-.43-.7-1.14-1.17-2.38-1.77-3.58a16.8,16.8,0,0,0-2.68-3.34c1.75.29,3.35-.12,5.37-.39,3.69-.49,8.49,10,11.17,12.25,3.43,2.91,7.73,5.57,6.52,10.73-.64,2.74-.76,4.51.09,6.55a40.43,40.43,0,0,0-4.13-5.4c-.11-.12-.26,0-.21.15,1.12,2.4,2.11,4.83,3.32,7.19a24.48,24.48,0,0,0,2.94,5,103.75,103.75,0,0,1-48.23,137.93Z" transform="translate(-1060.37 -157.31)" style="fill:#fff"/><path d="M1128.25,183.35a4.16,4.16,0,0,1,0,.78,5.1,5.1,0,0,1,1-.8h0c.11-.28.23-.57.32-.86a6.58,6.58,0,0,0-1.72.43A.53.53,0,0,1,1128.25,183.35Z" transform="translate(-1060.37 -157.31)" style="fill:none"/><path d="M1130.44,188.22a6.78,6.78,0,0,0-.3.9c.25-.13.49-.27.73-.41A.94.94,0,0,1,1130.44,188.22Z" transform="translate(-1060.37 -157.31)" style="fill:none"/><path d="M1128,189.5q-.18.42-.33.84l.45-.21A1.64,1.64,0,0,1,1128,189.5Z" transform="translate(-1060.37 -157.31)" style="fill:none"/><path d="M1131.66,183.05a.42.42,0,0,1,.18-.23,3.11,3.11,0,0,0-1.23-.38c0,.11,0,.21-.06.32C1130.92,182.46,1131.56,182.49,1131.66,183.05Z" transform="translate(-1060.37 -157.31)" style="fill:none"/><path d="M1104.33,275.06l0-.1-.14.09c-.08.05-.14.11-.22.17l.06,0Z" transform="translate(-1060.37 -157.31)" style="fill:none"/><path d="M1107,284.09a4.07,4.07,0,0,1-.79.11c.08.16.16.32.25.48A1.54,1.54,0,0,1,1107,284.09Z" transform="translate(-1060.37 -157.31)" style="fill:none"/><path d="M1126.67,188.42l.3-.53-.07,0-.27.65Z" transform="translate(-1060.37 -157.31)" style="fill:none"/><path d="M1132.93,187a.66.66,0,0,1-.08-.56,4,4,0,0,0-.08-2.68,6.76,6.76,0,0,1-.28,3.71Z" transform="translate(-1060.37 -157.31)" style="fill:none"/><path d="M1099.65,239.53a2.53,2.53,0,0,1-.42-.31l.33.47Z" transform="translate(-1060.37 -157.31)" style="fill:none"/><path d="M1111.14,284.87l-.12.1a1.78,1.78,0,0,1-.62.27,3.14,3.14,0,0,0,1.38-.38A4.56,4.56,0,0,1,1111.14,284.87Z" transform="translate(-1060.37 -157.31)" style="fill:none"/><path d="M1116.76,190.28l0-.19a4.39,4.39,0,0,0-.89,1.15c0,.15.06.28.1.42A4.74,4.74,0,0,1,1116.76,190.28Z" transform="translate(-1060.37 -157.31)" style="fill:none"/><path d="M1098,237.21v0S1098,237.22,1098,237.21Z" transform="translate(-1060.37 -157.31)" style="fill:none"/><path d="M1118.06,193.69a.83.83,0,0,1,0-.71v0a.81.81,0,0,1-.35-.36l-.16,0a2.5,2.5,0,0,1-.09.25.3.3,0,0,1,0,.08.68.68,0,0,1-.07.62A1.76,1.76,0,0,0,1118.06,193.69Z" transform="translate(-1060.37 -157.31)" style="fill:none"/><path d="M1120.38,193.14h0a.78.78,0,0,1-.16.2l.24-.06S1120.41,193.19,1120.38,193.14Z" transform="translate(-1060.37 -157.31)" style="fill:none"/><path d="M1119.53,188.4c0-.21.11-.42.16-.63l-.55.37a.52.52,0,0,1-.11.32,2.87,2.87,0,0,0-.45,1.16l.41-.58A8.3,8.3,0,0,1,1119.53,188.4Z" transform="translate(-1060.37 -157.31)" style="fill:none"/><path d="M1124,185.2c-.66.36-1.32.73-2,1.12l-.58.35c0,.26,0,.52,0,.78a.42.42,0,0,1,.12.68l-.18.23c0,.17-.05.33-.07.5a5.07,5.07,0,0,1-.3,1.57,18.55,18.55,0,0,1,1.24-2A16,16,0,0,0,1124,185.2Z" transform="translate(-1060.37 -157.31)" style="fill:none"/><path d="M1122.4,192.69c.47-.17.94-.36,1.4-.56a6.64,6.64,0,0,1,.52-3A12.69,12.69,0,0,0,1122.4,192.69Z" transform="translate(-1060.37 -157.31)" style="fill:none"/><path d="M1125.67,186.43a5.4,5.4,0,0,0,1.18-2.89.76.76,0,0,1,0-.16l-.36.23a9.58,9.58,0,0,1-.92.65.88.88,0,0,1,.1.22A3.89,3.89,0,0,1,1125.67,186.43Z" transform="translate(-1060.37 -157.31)" style="fill:none"/><path d="M1174.88,282.84l0,.07a.64.64,0,0,1,0-.07Z" transform="translate(-1060.37 -157.31)" style="fill:none"/><path d="M1191.27,252.85l.24.06a14.46,14.46,0,0,1-4.46-2.84A7.46,7.46,0,0,0,1191.27,252.85Z" transform="translate(-1060.37 -157.31)" style="fill:none"/><polygon points="123.14 153.73 123.14 153.73 123.15 153.74 123.14 153.73" style="fill:none"/><path d="M1173,213.19l-.09-.27-.46-.12h0c0,.2-.06.39-.08.58a1.69,1.69,0,0,1,.29-.17A.52.52,0,0,1,1173,213.19Z" transform="translate(-1060.37 -157.31)" style="fill:none"/><path d="M1170.43,219.46a3.76,3.76,0,0,1-1.52-.55,3.44,3.44,0,0,1-.53.21,3.11,3.11,0,0,1,.35.37C1169.29,219.49,1169.86,219.46,1170.43,219.46Z" transform="translate(-1060.37 -157.31)" style="fill:none"/><path d="M1169.46,215.94l0,0h0s0-.07,0-.11a.78.78,0,0,1-.21.09l.07.05Z" transform="translate(-1060.37 -157.31)" style="fill:none"/><path d="M1106.9,352.68c.7,1.62,1.32,3.29,2.17,4.84,1.82,3.32,3.93,4.69,7.1,6.52,4.24,2.45,6.82,3.44,11.15,1.12a107.79,107.79,0,0,1-16.07-9.25C1109.77,354.87,1108.33,353.79,1106.9,352.68Z" transform="translate(-1060.37 -157.31)" style="fill:none"/><path d="M1115.29,278.56l.3.2a7.08,7.08,0,0,0-.65-1.29,1,1,0,0,1,0,.17,2.35,2.35,0,0,1,.13.57C1115.14,278.32,1115.21,278.45,1115.29,278.56Z" transform="translate(-1060.37 -157.31)" style="fill:none"/><path d="M1074.2,226.59a107.22,107.22,0,0,1,12-21.14l-2.8,1.57c-3.22,1.85-4.72,4.47-6.8,7.4-2.35,3.32-5.36,7-2.95,11.22C1073.86,226,1074,226.28,1074.2,226.59Z" transform="translate(-1060.37 -157.31)" style="fill:none"/><path d="M1185.16,162.55a.57.57,0,0,1-.08-.13c-2-4.29-6.27-2.48-9.8-2.31-1.73.08-4.22-.68-5.82,0a8.61,8.61,0,0,0-2.83,1.81c1.88-.09,3.77-.16,5.66-.16A106.13,106.13,0,0,1,1185.16,162.55Z" transform="translate(-1060.37 -157.31)" style="fill:none"/><path d="M1173.6,280.74c.21.28.41.57.61.89l.36,0a3.59,3.59,0,0,0-.6-1A2.32,2.32,0,0,1,1173.6,280.74Z" transform="translate(-1060.37 -157.31)" style="fill:none"/><path d="M1097.37,241.49a2.12,2.12,0,0,1-.49-.27l.23.36Z" transform="translate(-1060.37 -157.31)" style="fill:none"/><path d="M1182.12,310.08l-.21.14.33-.07Z" transform="translate(-1060.37 -157.31)" style="fill:none"/><path d="M1173,287.7a1.94,1.94,0,0,1-.24.15,1.15,1.15,0,0,0,1.49-.37l-.06-.15A1.68,1.68,0,0,1,1173,287.7Z" transform="translate(-1060.37 -157.31)" style="fill:none"/><path d="M1141,286.34l.06.13c0-.07,0-.14,0-.22A.28.28,0,0,1,1141,286.34Z" transform="translate(-1060.37 -157.31)" style="fill:none"/><path d="M1182.87,312.82a8.11,8.11,0,0,0-2.4.25,1.57,1.57,0,0,0,.13,1.07c1.06-1.19,3.13-1.44,4.7-1.13a8.43,8.43,0,0,0-1-1.25C1184.48,312.54,1183.45,312.81,1182.87,312.82Z" transform="translate(-1060.37 -157.31)" style="fill:none"/><path d="M1171.73,278.92a.75.75,0,0,1-.11.79l0,0c.39,0,.84-.09,1.27-.09A10.17,10.17,0,0,0,1171.73,278.92Z" transform="translate(-1060.37 -157.31)" style="fill:none"/><path d="M1173.48,284.4l0-.09h0a1.33,1.33,0,0,1,0,.28l.12,0A.94.94,0,0,0,1173.48,284.4Z" transform="translate(-1060.37 -157.31)" style="fill:none"/><path d="M1185.87,314.63a3.16,3.16,0,0,1-.32,0,1.83,1.83,0,0,1,.67.38,4,4,0,0,0-.15-.49A.93.93,0,0,1,1185.87,314.63Z" transform="translate(-1060.37 -157.31)" style="fill:none"/><path d="M1225.16,302.47a16.94,16.94,0,0,0,1.78-.3,14.07,14.07,0,0,1-1.83.13A1.09,1.09,0,0,1,1225.16,302.47Z" transform="translate(-1060.37 -157.31)" style="fill:none"/><path d="M1229,287.23c-.2,2.41-1,4.74-3.27,5.95a12.7,12.7,0,0,1-3.75,1.27l.12.13c1.33-.27,2.77,0,4.15-.17a6.89,6.89,0,0,0,3.37-3.94c0-.34.07-.69.13-1a1.47,1.47,0,0,0,0-.21.33.33,0,0,1,.08-.22,2.8,2.8,0,0,1,.06-.28.56.56,0,0,1,.41-.42,10.18,10.18,0,0,0-1.31-1.15A.15.15,0,0,1,1229,287.23Z" transform="translate(-1060.37 -157.31)" style="fill:none"/><path d="M1095.33,237.8l-.29-.42c.14.4.28.8.45,1.2C1095.42,238.31,1095.37,238.05,1095.33,237.8Z" transform="translate(-1060.37 -157.31)" style="fill:none"/><path d="M1233.57,293a.8.8,0,0,1-.22-.26,20.75,20.75,0,0,0-2-3.27c.48,1.78.73,3.69-.07,5.18A16.16,16.16,0,0,0,1233.57,293Z" transform="translate(-1060.37 -157.31)" style="fill:none"/><path d="M1223,286.54l-.68.5a6,6,0,0,0,2-.43C1223.8,286.57,1223.38,286.54,1223,286.54Z" transform="translate(-1060.37 -157.31)" style="fill:none"/><path d="M1234.71,293a.53.53,0,0,1,0,.5,12.31,12.31,0,0,1-1.49,2.2.61.61,0,0,1,.21.83,6.74,6.74,0,0,1-.55.84c.6-.26,1.19-.53,1.79-.83a.39.39,0,0,1,.53.53,6.53,6.53,0,0,1-1.26,1.85,1.13,1.13,0,0,1,0,.18,7.37,7.37,0,0,0,2.07-3,.66.66,0,0,1,.3-.35,13.91,13.91,0,0,0-1.31-2.93A.73.73,0,0,1,1234.71,293Z" transform="translate(-1060.37 -157.31)" style="fill:none"/><path d="M1223,289.09l-.19.05a10,10,0,0,1-2,.23.08.08,0,0,1,0,.05,7.67,7.67,0,0,0,1.66-.16Z" transform="translate(-1060.37 -157.31)" style="fill:none"/><path d="M1223.05,291.56a5.12,5.12,0,0,0,1.06-.24,5.86,5.86,0,0,0,3.91-4.23.48.48,0,0,1,.33-.33c-.25-.12-.5-.24-.76-.34a.56.56,0,0,1-.23.12l-.31,0a.49.49,0,0,1,0,.12c-.7,1.88-1.43,3.68-3.37,4.59Z" transform="translate(-1060.37 -157.31)" style="fill:none"/><path d="M1215.48,291.54a14.52,14.52,0,0,0-.08,5,.57.57,0,0,1,.34-.24,16.13,16.13,0,0,1,1.47-7.31c.13-.25.27-.53.43-.82A5.2,5.2,0,0,0,1215.48,291.54Z" transform="translate(-1060.37 -157.31)" style="fill:none"/><path d="M1219.69,301.67l.06.14a5,5,0,0,0,1.22.55l-1.06-.66A.41.41,0,0,1,1219.69,301.67Z" transform="translate(-1060.37 -157.31)" style="fill:none"/><path d="M1266.5,318.46a7.08,7.08,0,0,1,2-.54c5.38-.56,4.79-5.88,6-10,.5-1.69,1.78-3.48,2-5.19.39-2.68-.6-4.18-1.35-6.28A106,106,0,0,1,1266.5,318.46Z" transform="translate(-1060.37 -157.31)" style="fill:none"/><path d="M1091.07,239.14a8.16,8.16,0,0,1-1-3.41c-.09-.37-.16-.74-.22-1.09a7.4,7.4,0,0,0,1.09,4.22Z" transform="translate(-1060.37 -157.31)" style="fill:none"/><path d="M1097.64,332.15c-.77-.95-1.55-2-2.26-3a18.11,18.11,0,0,0,2.25,3.16,8,8,0,0,1,.6.56s0,0,0,0l.59.41A7.24,7.24,0,0,1,1097.64,332.15Z" transform="translate(-1060.37 -157.31)" style="fill:none"/><path d="M1265.86,223.74a24.48,24.48,0,0,1-2.94-5c-1.21-2.36-2.2-4.79-3.32-7.19,0-.12.1-.27.21-.15a40.43,40.43,0,0,1,4.13,5.4c-.85-2-.73-3.81-.09-6.55,1.21-5.16-3.09-7.82-6.52-10.73-2.68-2.28-7.48-12.74-11.17-12.25-2,.27-3.62.68-5.37.39a16.8,16.8,0,0,1,2.68,3.34c.6,1.2,1.07,2.44,1.77,3.58.16.26-.17.62-.43.43-2.29-1.61-3.71-3.87-5.67-5.81-.36-.36-.74-.69-1.11-1l0,0a103.64,103.64,0,0,0-84.28-21.8.44.44,0,0,1-.13.18c-1.13,1-2.16.75-3.65,1s-3.07.61-4.61.88a26.47,26.47,0,0,0-5.71,1.72c-.17.07-.46,0-.43-.24.26-1.95,2.82-2.6,4.42-3.06.65-.19,1.53-.48,2.49-.77l0-.12a8.91,8.91,0,0,1-4.35-1.34c-6-3.39-8.65,1.54-13.54,3.79-3.76,1.73-13.7,3.67-14,8.27a10.32,10.32,0,0,1-.84,4.09l.1,0c2-1,4.15-3.95,6.61-3.24a.44.44,0,0,1,0,.84c-1.31.4-2,2-3,2.84a16.25,16.25,0,0,1-3,2.15,26.24,26.24,0,0,0-3.93,2.56,5.2,5.2,0,0,1-2.23,1.49.94.94,0,0,1-.44,0,103.85,103.85,0,0,0-38.91,81c0,1.29,0,2.59.07,3.85h-.12a47.68,47.68,0,0,0,.41,4.94c.4,2.37-.08,5.07.87,7.3a.46.46,0,0,1-.79.46c-1.37-2.14-1.54-4.78-2.09-7.2-.26-1.14-.52-2.32-.7-3.52a13.61,13.61,0,0,1-1.19,1.58c-4.66,5.31-.22,8.72,1,14.05.84,3.65.6,14,4.82,15.18a15.73,15.73,0,0,1,3.11,1.09c-.79-1.74-1.81-3.35-1.18-5.27a.4.4,0,0,1,.77,0c.56,2.32,2.11,4.48,3.11,6.64.74,1.61,1.94,3.26,1.78,5.05a103.78,103.78,0,0,0,111.5,58l0,.13a10.94,10.94,0,0,0,1.41-.25c2.32-.56,4.88-1.52,7.29-1.35a.39.39,0,0,1,.19.72,23.83,23.83,0,0,1-4.75,2.28,8.33,8.33,0,0,1,2.33,1.62c3.47,3.39,7.43-.51,11-2,2.61-1.12,6.28-1.31,7.91-4,.8-1.33,1.5-2.7,2.33-4l-.8.24c-1.89.56-3.93.73-5.87,1.11a.26.26,0,0,1-.31-.32c.56-2.13,3.36-1.72,5-2.28.63-.21,1.26-.46,1.91-.71v0a103.75,103.75,0,0,0,48.23-137.93Zm-19.14-15.81a6.42,6.42,0,0,1,5.91,1.12c2.21,1.48,3.07,4.14,5.15,5.73.51.39.06,1.25-.52.89-2.28-1.41-3.92-4-6.28-5.2-2-1-4.45-1.07-5.53,1.3s.38,3.55.69,5.62c.07.51-.42,1.07-1,.73C1241.42,215.65,1242.47,209.34,1246.72,207.93Zm-11.81,40.43c3.4-3.17,6.87.7,7.36,4.09,0,.39-.4.77-.73.42-.87-1-1.17-2.42-2.13-3.27-1.78-1.57-3.82.72-4.19,2.26a8.76,8.76,0,0,0,.49,5.75c.84,1.71,2,3.87,3.67,4.92,2.65,1.7,1.36-5,1.09-6.11-.14-.57.53-1.23,1.09-.83,2.91,2.09,3.67,9.2-.7,10.19-3.43.78-6.24-4.45-7.32-6.9C1232.08,255.55,1232.11,251,1234.91,248.36Zm-8-51.12c-1,6.82-10.76,4.09-14.8,2.5-4.76-1.89-13.95-7.17-15.65-12.65-.59-1.9-.4-4.16,1.61-5.21,3.83-2,5.93-.77,9.84.28a.52.52,0,0,1-.28,1,38.54,38.54,0,0,0-4.66-.71,16.89,16.89,0,0,0-1.59.78.74.74,0,0,1,.44.11,12.06,12.06,0,0,0,1.64,1.06c.25.11.07.47-.18.42-2.79-.57-1-.16-1-.1a8,8,0,0,0,.34,1.67,7.7,7.7,0,0,0,.54,1.12,3.12,3.12,0,0,1-.08-1.66c.15-.6.93-.4,1,.13a6.19,6.19,0,0,0,2.14,3.54,9.25,9.25,0,0,1-2.19-4.27c-.06-.4.49-.7.7-.29a14.05,14.05,0,0,0,2,2.95.41.41,0,0,1,.71-.29,30.77,30.77,0,0,0,3.19,2.85c-.35-.37-.71-.74-1-1.12a.47.47,0,0,1,.66-.66,40.71,40.71,0,0,0,3.8,3,6.19,6.19,0,0,0,.65.39c-.25-.22-.48-.44-.7-.61a14.4,14.4,0,0,1-2.89-2.73c-.25-.35.11-.8.49-.8a.61.61,0,0,1,1.06-.61,5.52,5.52,0,0,0,1.26,1.41c2.39,1.28,5.15,3.46,5,6.1a1,1,0,0,1-.75,1c-4.37,1.09-9.29-1.19-12.93-3.55-2.92-1.9-5-4.61-4.77-8.24a.87.87,0,0,1,.16-.44c-2.56,1.62-2.84,3.33-.86,5.14a27.31,27.31,0,0,0,3.7,3.27c3.22,2.39,6.68,4.94,10.57,6.14,2,.62,4.46,1.48,6.6,1.3,3.85-.31,3.9-4.75,1.64-7.15-2.49-2.65-5.36-4.28-8.41-6.15a.84.84,0,0,1,.65-1.53C1219,185.63,1227.72,191.83,1226.91,197.24Zm-24.25,58.83c-6.15,1.29-14.65.65-19.4-4.15-2.62-2.65-4.79-9.81-.26-11.68.54-.22.9.39.84.84-.31,2.13-1.1,4.78-.1,6.9a4.45,4.45,0,0,1,.26-3.2c1.75-3.49,5.27-3.46,8.63-2.61a.41.41,0,0,1,0,.79c-.37.07-.79.13-1.24.19.2.8-1.55,1.45-1.67,2.08-.33,1.77,2.49,3,3.77,3.54,1.55.65,3.28.37,4.82,1,.34.14.54.69.11.88a8.28,8.28,0,0,1-1.53.5c1.69,0,3.47-.17,4.35-.85a.39.39,0,0,1,.61.47c-1.07,2.25-3.77,2.93-6.47,2.76,0,0,0,.07,0,.1a13.07,13.07,0,0,0,6.09-.4c1.89-.68,2.35-2.12,3.76-3.29a.43.43,0,0,1,.72.3,4.43,4.43,0,0,1-3,5A.54.54,0,0,1,1202.66,256.07Zm-13,1.28a6.1,6.1,0,0,1-5.51-.94c-1.25-.84-3.44-2.59-2.83-4.33a.58.58,0,0,1,.7-.41c.73.26,1,.77,1.51,1.31a9.1,9.1,0,0,0,2.1,1.76c1.3.72,2.77,1.16,4.14,1.75C1190.17,256.67,1190,257.22,1189.64,257.35Zm7.34-79a.41.41,0,0,1,0,.81c-4,.27-4.66,4.72-2.86,7.57a17.24,17.24,0,0,0,3.67,4.18c2.18,1.79,5,3.1,6.7,5.37.21.28-.13.61-.41.54-4.74-1.17-9.74-5.8-11.88-10.09C1190.3,183,1192.49,178.24,1197,178.38Zm-2.46-1.87a.05.05,0,0,1,0,.1A.05.05,0,1,1,1194.52,176.51Zm-32.38-5.25c3.74-2.65,8.14-2.71,12.54-2.44,4.23.26,8.73,0,12.73,1.57,1,.41,2,.9,3.08,1.4a9.23,9.23,0,0,1,1.46.09.36.36,0,0,1,.11.63,18.14,18.14,0,0,0,3.47,1.21c2.81.62,5.64.75,8.48,1.09a72.84,72.84,0,0,1,13.06,3.29.83.83,0,0,1-.44,1.59c-5.38-1.08-10.72-2.62-16.19-3a27.2,27.2,0,0,1-9.14-2.12c-.87-.38-1.71-.69-2.54-1a12.41,12.41,0,0,1-3.81-.29c-3.69-.72-8.94-2.1-12.11.62a.46.46,0,0,1-.65-.64,7.65,7.65,0,0,1,3-2l-.55,0c-4.32-.32-8,.92-12.16,1.38C1161.71,172.72,1161.61,171.63,1162.14,171.26Zm.22,34.78a.41.41,0,0,1,.68.4c-1.2,3.91-3.82,8.71-1.46,12.75a7.48,7.48,0,0,0,1.23,1.6,12.28,12.28,0,0,1,1.4-11.79c1.3-1.64,6-6.59,8.54-4.05a.31.31,0,0,1,0,.44c-1,1-1.64.87-2.9,1.55a11,11,0,0,0-3.65,3.59c0,.07-.08.15-.13.22h0c.08-.12.16-.25.25-.36a8.45,8.45,0,0,1,4.82-3.31c2-.43,3,.64,4.24,1.91.29.29-.09.81-.44.58a3.25,3.25,0,0,0-2.19-.55,4.23,4.23,0,0,1,2.13,2.35.4.4,0,0,1-.54.54,4.72,4.72,0,0,1,.53,1.64c.25,1.85-.31,4.42-2.06,5.44a3.77,3.77,0,0,1-1.78.5,4.69,4.69,0,0,1,1.26.23.31.31,0,0,1,.14.5,6.42,6.42,0,0,1-7.76.51l-.12-.12-.06.56a.79.79,0,0,1-.47.63,11.21,11.21,0,0,0,5.5,1.82c.69-.65,1.29-.64,2.36-1a8,8,0,0,0,4.54-4.48c1.14-2.69.57-4.93.07-7.6a3.5,3.5,0,0,1,0-2.24.37.37,0,0,1,.71,0c.67,3.91,2.64,8.64,0,12.38a16.77,16.77,0,0,1-1.62,2l.38-.16c.49-.23,1.06.39.61.79-4.35,3.82-12.92,3.45-16.34-1.58C1157.18,217.05,1158.34,209.84,1162.36,206Zm24.08,110.11a.47.47,0,0,1-.16.1c-.67.19-1.2-.28-1.86-.31a1.87,1.87,0,0,0-1.76.57.55.55,0,0,1-1-.56,2.71,2.71,0,0,1,2-1.46,2.74,2.74,0,0,0-2.49.41.48.48,0,0,1-.61,0,.57.57,0,0,1-.88-.09,2.93,2.93,0,0,1-.48-1.53.5.5,0,0,1-.47-.43,4,4,0,0,1,1-2.9,4.76,4.76,0,0,1,.75-.64,3,3,0,0,0-1.84.82,6.22,6.22,0,0,0-.57,5.36c.26.58-.33,1.47-1,1a3.51,3.51,0,0,1-1.24-3.41,12,12,0,0,1,.55-3.22h-.26a3.65,3.65,0,0,0-.69,1.57c-.23,1.36-.89,4.48.32,5.46.35.28,0,.89-.43.75a2.66,2.66,0,0,1-1.81-2.45,18.8,18.8,0,0,1,0-3.82,5,5,0,0,0-.63,1c-.94,2.12-1.11,4.54.87,6.12.45.35-.12,1.05-.59.77-2.74-1.64-3.07-4.78-1.94-7.59a9.59,9.59,0,0,1,.79-1.5,11.83,11.83,0,0,0-1.36.38c-.74,2.45-1.65,4.56-.4,7.13.65,1.33,1.33,3.1,2.66,3.86a.34.34,0,0,1-.08.62c-2.27.56-3.76-2-4.49-3.92a3.48,3.48,0,0,1-.22,1.12.74.74,0,0,1-.81.52c1.06,1.88,2.72,3.26,4,5.3a.64.64,0,0,1-.55.95,4.61,4.61,0,0,1-1.74-.28.65.65,0,0,1-.75.54c-4.21-.93-8.35-6.42-7.1-10.88,1.36-4.81,6-8.39,10.83-9.23a23.17,23.17,0,0,1,6.55-.22,2.88,2.88,0,0,1,1.12.17,10.54,10.54,0,0,1,6.27,3.24c3.33,3.89,4.27,8.79.21,12.42a.56.56,0,0,1-.87-.67A9.09,9.09,0,0,0,1186.44,316.15ZM1175,289.7c-3.56,1.72-8.32-2.7-7.53-6.34.17-.81,1.21-.64,1.47,0a13,13,0,0,0,1.82,2.81l0-.05a.62.62,0,0,1-.26-.87,3.52,3.52,0,0,1-.68-1.69c-.1-.77,1.1-.87,1.31-.18a1.81,1.81,0,0,0,.41.69c0-.39,0-.78.07-1.18a.55.55,0,0,1,.23-.41v-.06a3.63,3.63,0,0,0-2.35-1.18.69.69,0,0,1-.46-1.16l-.22,0a6.93,6.93,0,0,0-1.29-.07c-.25,0-.43.17-.7.15s-.53-.67-.35-.95a2.24,2.24,0,0,1,1.31-1,7.24,7.24,0,0,1,1.75-.16l-.17-.05a5.59,5.59,0,0,0-3.6-.29c-1.54.62-.86,2.69.1,3.49.48.4-.13,1.08-.64.83a4.17,4.17,0,0,1-2.24-4.4c.31-1.73,2.75-2.41,4.22-2.28,3.17.28,8.33,2.1,9.39,5.51C1177.37,283.26,1177.86,288.31,1175,289.7Zm-24.77-.59a4.84,4.84,0,0,1-2.47,2.39,2.4,2.4,0,0,1-1.68,1.5c-.86,1.34-3.24,1.36-4.49.54a7.07,7.07,0,0,1-2.87-4.93c0-.32-.07-.67-.09-1a3,3,0,0,1,.41-2.94,3.86,3.86,0,0,1,1-1.56,5.14,5.14,0,0,1,3.61-1.59c1.37.1,2.4.84,3.66,1.29a.47.47,0,0,1-.25.9,8.85,8.85,0,0,0-2.63-.16.7.7,0,0,1-.35.66c-.24.13-.59.2-.74.3.18-.13-.08.19-.1.25a3.34,3.34,0,0,0,.16,1.75,3.79,3.79,0,0,0,.88,1.71,1.63,1.63,0,0,0,1.37.36c.33-.15.79.18.54.55s-.3.49-.47.7a5.08,5.08,0,0,0,3.83-1.2A.42.42,0,0,1,1150.21,289.11Zm-53.67-2.88a.7.7,0,0,1-1.29.35,9.81,9.81,0,0,1-1.42-2.88,1.06,1.06,0,0,1-.45-.34c-3-3.84-1.32-11.95,2.29-15,4.42-3.71,9.68-6,15.28-4.18.32.1.39.67,0,.72a30.22,30.22,0,0,0-8.6,2.26,18.1,18.1,0,0,1,5.17-.39.44.44,0,0,1,0,.87c-4.75.64-10.56,3.1-11.59,8.31C1095.21,279.56,1096.64,282.72,1096.54,286.23Zm1.86-4.65a11.41,11.41,0,0,1,1.32-5,7.39,7.39,0,0,1,4.36-4.59c6.06-2.55,14.08.71,14.67,7.88a11,11,0,0,1-2.74,7.56,7.12,7.12,0,0,0,3.14-3.23c1.73-3.7.6-7.76.48-11.67,0-.27.35-.28.43-.06a24.6,24.6,0,0,1,1.92,10.15c.88-2.2.89-4.52,1-7.09a.91.91,0,0,1,1.68-.45c5.36,10.3-8.34,19.67-17.6,16.83C1102.28,290.49,1098.07,287,1098.4,281.58Zm22.21-31.29c-.22-3.69,2.45-8.43,6.61-8a.45.45,0,0,1,0,.9c-2.78.28-5.13,3.88-4.89,6.56a5.77,5.77,0,0,0,1.74,3.87c1.1.9,2.13.63,3.4.7.28,0,.56.36.36.63C1125.06,258.76,1120.78,253.2,1120.61,250.29Zm6.18-33.85c-1.07,2.54-2.51,5.32-5.65,4.62-.21,0-.14-.32,0-.34,2.83-.28,3.71-4.16,4.6-6.32a16.42,16.42,0,0,1,3.64-5.1c2.89-2.82,7.41-5.63,11.58-4.28a.56.56,0,0,1,0,1.08c-3.5,1-6.63,1.09-9.46,3.75A19.1,19.1,0,0,0,1126.79,216.44Zm21.33-31c.51,2-.94,3.76-2.31,5a17.83,17.83,0,0,1-3,2.21c-.65.38-1.46,1-2.24.71a.44.44,0,0,1-.26-.63c.3-.69,1.17-1,1.78-1.31a20.31,20.31,0,0,0,2.46-1.65,7.45,7.45,0,0,0,3-4.33A.28.28,0,0,1,1148.12,185.46Zm-25-1.94c2.74-1.53,5.89-4.76,9.23-2.8a5.05,5.05,0,0,1,2.49,3.61c1-1.86,1.19-3.75-1.54-3.86a.08.08,0,0,1,0-.16c2.39-.63,3.18,1.56,3.21,3.62,0,2.82-3.21,5.38-5.37,6.64-4.07,2.36-12.52,8-16.82,3.68C1110.24,190.22,1120.89,184.76,1123.1,183.52Zm-18.81,15.84c2.2,1,4.1,2.22,6.26,2.94a.89.89,0,0,1,.89-1.53l.19.07a.55.55,0,0,1,.23-.64,1.91,1.91,0,0,1,.32-.16c-3-.28-5-1.77-3.59-5.76a.42.42,0,0,1,.8,0c2.11,8.26,15.19,1.52,19.6-.91s12.14-5.41,13.38-10.71c0,0,.09,0,.1,0a5.54,5.54,0,0,1-1.23,4.82c3-2,6.74-4.58,2.86-6.32a24.37,24.37,0,0,0-6.74-1.65c-2.95-.42-6.77-1.15-9.76-.7-.14,0-.26-.18-.11-.25,3.38-1.57,8.15-.93,11.71-.32,2.69.46,5.68.77,7.65,2.86,3.78,4-5.7,8-8,9a.36.36,0,0,1-.46-.18,62.17,62.17,0,0,1-13.29,7.6,45,45,0,0,1-7.51,2.12c2.42-.17,5.2-.43,7.27-1.73.25-.16.46.22.23.4a16.54,16.54,0,0,1-2.58,1.61,9.91,9.91,0,0,0,1.4-.28c3.17-.89,5.68-2.88,8.71-4.08.25-.1.45.28.26.45a22,22,0,0,1-8.41,4.9l.09,0,.43-.14c3.2-1.14,6.79-2.24,9.56-4.3,2.07-1.54,3.72-3.48,5.71-5.11.2-.16.47.1.28.29-2.23,2.27-3.69,5-6.41,6.79a43.4,43.4,0,0,1-10.13,5.05c-6.3,2.11-12.91,3.54-18.63-.63a1.15,1.15,0,0,1-.32-.42,11.15,11.15,0,0,1-1.83-1.75A.87.87,0,0,1,1104.29,199.36Zm-15.52,29.88A10.65,10.65,0,0,1,1090,227c2.19-3.05,5.87-5.69,9.53-3.43a.13.13,0,0,1-.06.23,11,11,0,0,0-4.21,1,.57.57,0,0,1-.49.77c-.45.06-.94.74-1.4,1.59a1.54,1.54,0,0,1,.61,0,.52.52,0,0,1,0,1c-.23,0-.39.31-.52.77a.55.55,0,0,1,.27,1,3,3,0,0,0-.52.49c0,.29,0,.59-.08.89a2,2,0,0,1,.63-.88l.21-.48c.09-1,.32-2.36,1.32-2.48l.06,0,.06-.08c.34-.48,1.12-.06.8.47a14.48,14.48,0,0,0-1.09,2.3h.07c.71.15.5,1.18-.16,1.21l-.2,0c0,.92.12,1.88.17,2.81a1.18,1.18,0,0,1,.14.22,10.82,10.82,0,0,1,.68-3.57.57.57,0,0,1,.82-.29l0,0c.47-.55,1.43.18,1,.78a5,5,0,0,0-.29,4.25.71.71,0,0,1,.35.1,22.44,22.44,0,0,1-.06-2.84.49.49,0,0,1,1,0c0,.2,0,.41,0,.62a.65.65,0,0,1,.49.05c0-.05,0-.1,0-.15a.56.56,0,0,1,.08-.3,4.92,4.92,0,0,1-.17-1.27.66.66,0,0,1,1.3-.14.76.76,0,0,1,.51.07.55.55,0,0,1,.66-.14.56.56,0,0,1,.62-.35c0-.08,0-.15,0-.22.09-.71,1.19-1,1.35-.19a13.57,13.57,0,0,1-1.92,9c0,.12,0,.23-.08.35a8.08,8.08,0,0,1-1.32,2.66,6.5,6.5,0,0,1-1,.95,5.73,5.73,0,0,1-5.09,1.48c-2.72-.47-4.3-2.62-5.35-5.07C1087.65,237.52,1086.79,232.09,1088.77,229.24Zm-5.3,6.39c.33-.68,1.31-.31,1.33.36.1,2.46-.33,4.86,1,7.11a11.56,11.56,0,0,0,3.78,3.93c3.25,2,7,2.47,10.15-.15.24-.2.65.06.46.35C1094.21,256.2,1079.28,244.4,1083.47,235.63Zm-7.92,46.77c-.27-1.63.76-3.57.55-5.14-.35-2.62-1.74-4.75-2.5-7.21s.87-5.69,1.65-7.9a.28.28,0,0,1,.54.15c-.8,3.49-1.69,6.67.1,10.11a12.83,12.83,0,0,1,1.48,4.68c.49,3.63-.94,6.46,1.12,9.93.55.91,4.25,5.32,4.26,1.94,0-1.16-.06-2.32-.13-3.48s0-2.19-.09-3.27c-1.46-2-2.11-2.08-2-.27l.45,2.32a.6.6,0,0,1-.94.72c-1.92-1.91-.52-5.05.22-7.23a.58.58,0,0,1,.69-.4c4.7,1.17,5.39,16.67,1,15.44C1077.92,291.69,1076.16,286,1075.55,282.4ZM1092.92,331c-1.06-1.32-2.42-3-3.75-4.84-.82-1-1.61-2-2.38-2.84-2.11-2.34-4.7-5.23-5.2-8.48-.56-3.65,1.23-11.53,6.41-8.24a.3.3,0,0,1-.15.55c-3.94.42-4.56,3.5-4,6.46.13-1.76.77-3.55,2.69-4.07,2.4-.66,2.76,1.39,4.19,2.73a.36.36,0,0,1-.43.56c-2.65-1.57-4.71.13-4,2.89a11.25,11.25,0,0,1,0-1.53c.06-.54.91-.76,1-.14a27,27,0,0,0,1.42,5.2,10.14,10.14,0,0,1-.09-3.06c.07-.53.84-.73,1-.14a40.81,40.81,0,0,0,3.5,9q-.17-.39-.3-.78a.31.31,0,0,1,.21-.39,29.68,29.68,0,0,1-1.42-6.7c0-.19.26-.25.35-.1a28.75,28.75,0,0,1,1.78,3.92c1.16,1.66,1.63,3.72,3,5.32l.59.67c-1.48-1.93-2.83-4.22-2.93-6.48a.4.4,0,0,1,.74-.2c.63,1,1.24,2.08,1.89,3.08a.44.44,0,0,1,.29-.65,5.36,5.36,0,0,1-1.2-2.46.36.36,0,0,1,.7-.2c.39,1.34,1.6,2.19,2.6,3.06a.39.39,0,0,1,.38.18h0c-1.59-2.26-3.32-4.4-5-6.62-.24-.31.22-.74.53-.53,4.7,3.16,13.24,11.83,11.44,18.37C1104.82,341.87,1095.14,333.8,1092.92,331Zm20.75,4.5c-.37,3.65-5.31,9.64-9.19,6.06a.44.44,0,0,1-.13-.24c-2.34-.4-4.53-1.54-5.33-3.18-.24-.48.27-1.11.79-.78,2.54,1.62,5.63,3.1,8.73,1.84,3.93-1.59.26-7.54-.78-9.54a91.86,91.86,0,0,0-9.7-14.68c-.11-.14,0-.41.21-.28a34.64,34.64,0,0,1,9.25,11.31c1.49,2.69,3.35,5.61,4,8.71a10.91,10.91,0,0,0,0-2.06c-.25-3.75-2.19-8.58-4.15-11.77,0-.07.06-.15.11-.09C1110.67,324.76,1114.22,330.2,1113.67,335.54Zm.23-28.23a.3.3,0,0,1,.54-.23c.93,1.68,1.59,3.57,2.63,5.18,1.72,2.65,4.06,3.28,6.91,4.2a17.13,17.13,0,0,1,8.36,5.61c.55.68-.35,1.64-1,1a17.6,17.6,0,0,0-7.76-5.19,17.24,17.24,0,0,1-5.11-2C1115.73,313.85,1114.57,310.52,1113.9,307.31Zm8.88,12.84a.27.27,0,0,1,.07-.52c2.07-.05,3.11.82,4.66,2.07,3.51,2.8,8,2.88,12,4.3,1.45.5,3.3,1.4,4.85,1.33,4.52-.18-.36-5.59-1-6.1-1.2-1-2.9-2.39-4.53-2.65-3-.47.42,2.65,1.52,2.9s.56,1.69-.41,1.49c-1.58-.31-6.18-3.91-3.27-5.61,3.26-1.91,9.18,2.87,10.52,5.68,1.65,3.46.22,6.88-4.11,5.85a94.24,94.24,0,0,1-10.9-3.1C1128.62,324.44,1126.2,321.55,1122.78,320.15Zm10.9,23.05c.29-2.68,2.39-6.12,5.4-6.12a.85.85,0,0,1,.81.68,4,4,0,0,1,4-.4.09.09,0,0,1,0,.16c-3.83.09-5.81,4.26-5.51,7.63.5,1.34.77,2.86,2.06,3.57a4.83,4.83,0,0,0,3.58.23,8.2,8.2,0,0,1,1-.35,11.08,11.08,0,0,0,3.31-2.11.38.38,0,0,1,.51,0,14.67,14.67,0,0,0,2.32-4.45c0-.16.31-.14.3,0-.29,4-2,8-5.78,9.82-2.9,1.41-6,1.62-8.66-.41A9.13,9.13,0,0,1,1133.68,343.2Zm37.5,25.49c-3.07.2-5.81-.65-8.83-1.16-3.89-.66-7.76-.78-11.67-1.23-3.2-.38-8.83-1.07-11-4.07-1.84-2.54,1.12-3.61,3.36-3.92,3.75-.51,6.26.11,8.21,3.49a.86.86,0,0,1-.73,1.28c-1.66,0-3.38.36-4.51-1a.25.25,0,0,1,.17-.42l2.77-.17a5.93,5.93,0,0,0-6.94-1.65c-2.78,1.13,1.55,3.34,2,3.51,3.74,1.65,8.21,1.35,12.21,1.75a61.76,61.76,0,0,1,15,3.35A.13.13,0,0,1,1171.18,368.69Zm-11.66-3.51a.05.05,0,0,1,0,.1A.05.05,0,1,1,1159.52,365.18Zm27.78,2.8a8.34,8.34,0,0,1-6.45-.92c-3.36-2.17-7.31-2.43-11.21-2.69-5-.32-10.51.38-14.41-3.19-.35-.33.1-.82.49-.63,5.3,2.59,12.08,1.69,17.83,2.32,5,.54,9,3,13.75,4.27A.44.44,0,0,1,1187.3,368Zm9.12-15.26c-1.11,4-8,4.63-11.24,3.74s-6.87-2.73-7.49-6.34a4.66,4.66,0,0,1,0-1.58,6.16,6.16,0,0,1,0-1.62,8.88,8.88,0,0,1,2.32-4.09,5,5,0,0,1,.72-.66c3.32-2.37,8-.64,11.31.79a1.25,1.25,0,0,1,.63.91,13.1,13.1,0,0,1,2.59,1.93.61.61,0,0,1-.74.95,14.08,14.08,0,0,0-6.82-1.8,1.46,1.46,0,0,0,.7.87.47.47,0,0,1-.47.81,2.26,2.26,0,0,1-.65-.53,2.38,2.38,0,0,1-2.39-.35,1.7,1.7,0,0,1-.29-.31l-.17.06a3.28,3.28,0,0,0,.51.43c.54.38,1.06.84,1.61,1.2.37.23.92.81,1.34.88a.23.23,0,0,1,0,.41c-.3.14-.57.42-.91.46a6.18,6.18,0,0,1-1.36,0,4.91,4.91,0,0,1-2.74-1.39,2.07,2.07,0,0,0,1.15,1.45,15.37,15.37,0,0,0,3.24,1.39.46.46,0,0,1,.41.44c1.75-.21,3.51-.52,5.12.18a.71.71,0,0,1,0,1.22,15.35,15.35,0,0,1-6.89,1.6,8.17,8.17,0,0,0,3.74.07c2.14-.51,4.07-2.15,6.29-1.84A.59.59,0,0,1,1196.42,352.72Zm-17.86-92.79c-3.24-3.66-5.57-12.66-.86-16,.27-.19.52.17.41.42-2.88,6.54.18,15.17,7.28,17.48a27.7,27.7,0,0,0,8.11.92,39.2,39.2,0,0,1-5.2-3.19.42.42,0,0,1,.43-.73c3,1.55,6.55,3.15,10,3.27.89,0,1.79,0,2.68-.05l-.53-.1a20.83,20.83,0,0,1-4.58-2,.45.45,0,0,1,.23-.83c1.76.2,3.46.92,5.25.87,1.42,0,3.1-.63,4.2.45a.65.65,0,0,1,0,.91,3.06,3.06,0,0,1-1.81.8,7.16,7.16,0,0,1,2,.54.62.62,0,0,1,0,1.07,11.08,11.08,0,0,1-5.13,1.1.84.84,0,0,1-.61.57C1193.41,267.36,1183.45,265.47,1178.56,259.93Zm60.94,39.91a9.2,9.2,0,0,1-.45,2c-2.09,5.69-7.35,8.49-12.82,10.24a.16.16,0,0,1-.16-.27c3.08-2.83,8-5.07,9.84-8.9a9,9,0,0,0,.8-5,7.14,7.14,0,0,1-2.31,3.81,8.55,8.55,0,0,1-3.16,1.54l-.38.25a6.23,6.23,0,0,1-.32.63,17.6,17.6,0,0,0,4.22-2.66c.49-.41,1.34.12.94.73a13.29,13.29,0,0,1-14.38,5.57.46.46,0,0,1-.28,0c-.13-.05-.25-.12-.37-.18a13.77,13.77,0,0,1-5.88-3.57c-1.16-1.19-2.39-4.08-3-7.11.06,5.08,4.13,9.7,8.36,13.36.35.29,0,.87-.43.74a14.4,14.4,0,0,1-5.29-2.91.3.3,0,0,1-.34.45l-.09,0c1.25.87,2.57,1.54,3.85,2.47.42.31.48,1.14-.16,1.25-6.93,1.19-11.29-8.24-10.89-14,.3-4.16,2.45-11.53,7-13.05.37-.25.74-.48,1.12-.69,3.5-2.84,7.92-4.47,12.31-3.29,7.1,1.92,12.69,8.47,14.27,15.61.8,3.6,1,7.21-.85,10.53-1.36,2.46-5,3.43-7.36,4.4-.58.23-1-.71-.42-1,2.8-1.46,5.94-3,6.53-6.46A15.49,15.49,0,0,0,1239.5,299.84Zm-14.1,20.05c6.52.5,19.08-1.93,20.42-10,0,0,.07,0,.06,0a10.11,10.11,0,0,1-1.77,5.5.47.47,0,0,1,0,.33c-1.77,4.68-6.23,7.51-10.82,9.13-7,2.48-13.14,1.1-19.83-1.72a.24.24,0,0,1,.13-.47c7.86,1.18,15,1.44,21.44-1.51a27.68,27.68,0,0,1-8.18.94c-7.51-.31-20.9-4.22-21.67-13.53,0-.31.39-.45.6-.25C1211.47,314,1216.88,319.24,1225.4,319.89Zm7.77,13.43a4.37,4.37,0,0,1-3.21,3c-.88.28-1.79.48-2.68.76a2.86,2.86,0,0,1-1.89.29.49.49,0,0,1-.33-.58c.48-1.22,2.21-1.4,3.34-1.73a11.65,11.65,0,0,0,4.22-2C1232.85,332.8,1233.28,333,1233.17,333.32Zm12.8-5.49c-2.79,5.42-4.65,10.71-10.39,13.62-2.17,1.1-4,2.62-6.31,3.38-2.92,1-4.81-.46-8,1-3.94,1.78-6.59,5.5-10.72,6.6-1.85.5-3.22-.4-3.17-2.21a.19.19,0,0,1,.32-.13c2.67,3,6.36-2.38,8.35-3.75,2.37-1.64,5.81-3.83,8.85-3.78,4.31.06,10.54-2.22,13.53-5.81,2.53-3,4.08-6.63,6.76-9.57C1245.56,326.73,1246.24,327.31,1246,327.83Zm1.09-19.88a.22.22,0,0,1-.43-.06c-.29-6.81,1.59-16.33-4.13-21.71-6.12-5.77-13.86-7.83-22.21-7.24-7.89.55-15.76,4.6-18.48,12.56-1.91,5.58-2.3,14.37,1,19.53.25.38-.3.77-.61.47-5.28-5.08-4.56-15.56-2.19-21.88a21.2,21.2,0,0,1,17.09-13.11c8.45-1.05,20.16-.15,25.58,7.58C1247,290.15,1250.08,300.79,1247.06,308Zm9.7-71.17c-6.75,1.95-14.37-8.87-14.81-14.55a.23.23,0,0,1,.43-.12c1.6,2.89,3.24,6,5.54,8.41,2.62,2.76,5.25,3.67,8.84,4.49A.92.92,0,0,1,1256.76,236.78ZM1257,230c-2.7.59-6-2.55-7.33-4.53a15.32,15.32,0,0,1-2.63-10.76.55.55,0,0,1,1.06,0c.31,1.56.46,3.16.8,4.7a2.46,2.46,0,0,1,.07-.29.27.27,0,0,1,.52,0,8.37,8.37,0,0,0,.57,1.64q0-.3,0-.57a.54.54,0,0,1,1.06-.14,11.31,11.31,0,0,0,1.66,3c-.2-.58-.37-1.17-.52-1.76-.1-.37.47-.64.64-.27a18.12,18.12,0,0,0,1.79,3.08,12.62,12.62,0,0,1-.87-2.78.46.46,0,0,1,.61-.53.44.44,0,0,1,.56.18l.67.93a.41.41,0,0,1,.65.19c.09.29.22.62.36,1a.48.48,0,0,1,.17-.05,33.24,33.24,0,0,1-1-4.14.41.41,0,0,1,.62-.35C1259.08,220.33,1261.54,229,1257,230Zm10.24,55.73c-1.33-.78-1.35-2.19-1.52-3.54-.32-2.53-1.75-6.23-1-8.81,1-3.43,3-6.05,2.68-9.83a110.63,110.63,0,0,0-1.72-11.31c0-.21.26-.37.36-.15,3.12,6.67,4.54,13.1,1.64,19.88-1.27,3-.22,5.62.16,8.62.46,3.57,3.25,1.58,3.64-.94.24-1.53.79-5.47-.35-6.93-.13.3-.28.6-.59,1.19a.78.78,0,0,1-1.42-.59c.13-.71.27-1.42.4-2.13a1,1,0,0,1,.75-1c.54-.09,1-.15,1.6-.21a1.17,1.17,0,0,1,1,.6,15.43,15.43,0,0,1,.3,11.66C1272.44,284.37,1269.65,287.21,1267.19,285.77Z" transform="translate(-1060.37 -157.31)" style="fill:none"/><path d="M1101,326.14l0,0,0,0Z" transform="translate(-1060.37 -157.31)" style="fill:none"/><path d="M1131.1,190.57c2.16-1.26,5.41-3.82,5.37-6.64,0-2.06-.82-4.25-3.21-3.62a.08.08,0,0,0,0,.16c2.73.11,2.51,2,1.54,3.86a5.05,5.05,0,0,0-2.49-3.61c-3.34-2-6.49,1.27-9.23,2.8-2.21,1.24-12.86,6.7-8.82,10.73C1118.58,198.53,1127,192.93,1131.1,190.57Zm1.67-6.77a4,4,0,0,1,.08,2.68.66.66,0,0,0,.08.56l-.44.47A6.76,6.76,0,0,0,1132.77,183.8Zm-2.16-1.36a3.11,3.11,0,0,1,1.23.38.42.42,0,0,0-.18.23c-.1-.56-.74-.59-1.11-.29C1130.57,182.65,1130.6,182.55,1130.61,182.44Zm-.17,5.78a.94.94,0,0,0,.43.49c-.24.14-.48.28-.73.41A6.78,6.78,0,0,1,1130.44,188.22Zm-.84-5.76c-.09.29-.21.58-.32.86h0a5.1,5.1,0,0,0-1,.8,4.16,4.16,0,0,0,0-.78.53.53,0,0,0-.37-.46A6.58,6.58,0,0,1,1129.6,182.46Zm-1.59,7a1.64,1.64,0,0,0,.12.63l-.45.21Q1127.83,189.92,1128,189.5Zm-1-1.61-.3.53,0,.08.27-.65Zm-.45-4.28.36-.23a.76.76,0,0,0,0,.16,5.4,5.4,0,0,1-1.18,2.89,3.89,3.89,0,0,0,0-2,.88.88,0,0,0-.1-.22A9.58,9.58,0,0,0,1126.52,183.61Zm-2.72,8.52c-.46.2-.93.39-1.4.56a12.69,12.69,0,0,1,1.92-3.57A6.64,6.64,0,0,0,1123.8,192.13Zm-2.47-3.27c0-.17.05-.33.07-.5l.18-.23a.42.42,0,0,0-.12-.68c0-.26,0-.52,0-.78l.58-.35c.65-.39,1.31-.76,2-1.12a16,16,0,0,1-1.74,3.26,18.55,18.55,0,0,0-1.24,2A5.07,5.07,0,0,0,1121.33,188.86Zm-.95,4.28h0c0,.05,0,.1.08.14l-.24.06A.78.78,0,0,0,1120.38,193.14Zm-1.35-4.68a.52.52,0,0,0,.11-.32l.55-.37c0,.21-.11.42-.16.63a8.3,8.3,0,0,0-.54.64l-.41.58A2.87,2.87,0,0,1,1119,188.46Zm-1.56,4.49a.3.3,0,0,0,0-.08,2.5,2.5,0,0,0,.09-.25l.16,0a.81.81,0,0,0,.35.36v0a.83.83,0,0,0,0,.71,1.76,1.76,0,0,1-.66-.12A.68.68,0,0,0,1117.47,193Zm-.68-2.86,0,.19a4.74,4.74,0,0,0-.76,1.38c0-.14-.07-.27-.1-.42A4.39,4.39,0,0,1,1116.79,190.09Z" transform="translate(-1060.37 -157.31)" style="fill:#acbbbf"/><path d="M1147.58,185.46a7.45,7.45,0,0,1-3,4.33,20.31,20.31,0,0,1-2.46,1.65c-.61.35-1.48.62-1.78,1.31a.44.44,0,0,0,.26.63c.78.24,1.59-.33,2.24-.71a17.83,17.83,0,0,0,3-2.21c1.37-1.24,2.82-3,2.31-5A.28.28,0,0,0,1147.58,185.46Z" transform="translate(-1060.37 -157.31)" style="fill:#acbbbf"/><path d="M1105.07,202.47a1.15,1.15,0,0,0,.32.42c5.72,4.17,12.33,2.74,18.63.63a43.4,43.4,0,0,0,10.13-5.05c2.72-1.83,4.18-4.52,6.41-6.79.19-.19-.08-.45-.28-.29-2,1.63-3.64,3.57-5.71,5.11-2.77,2.06-6.36,3.16-9.56,4.3l-.43.14-.09,0a22,22,0,0,0,8.41-4.9c.19-.17,0-.55-.26-.45-3,1.2-5.54,3.19-8.71,4.08a9.91,9.91,0,0,1-1.4.28,16.54,16.54,0,0,0,2.58-1.61c.23-.18,0-.56-.23-.4-2.07,1.3-4.85,1.56-7.27,1.73a45,45,0,0,0,7.51-2.12,62.17,62.17,0,0,0,13.29-7.6.36.36,0,0,0,.46.18c2.28-1,11.76-5,8-9-2-2.09-5-2.4-7.65-2.86-3.56-.61-8.33-1.25-11.71.32-.15.07,0,.28.11.25,3-.45,6.81.28,9.76.7a24.37,24.37,0,0,1,6.74,1.65c3.88,1.74.14,4.32-2.86,6.32a5.54,5.54,0,0,0,1.23-4.82s-.09,0-.1,0c-1.24,5.3-9,8.3-13.38,10.71s-17.49,9.17-19.6.91a.42.42,0,0,0-.8,0c-1.42,4,.55,5.48,3.59,5.76a1.91,1.91,0,0,0-.32.16.55.55,0,0,0-.23.64l-.19-.07a.89.89,0,0,0-.89,1.53c-2.16-.72-4.06-2-6.26-2.94a.87.87,0,0,0-1,1.36A11.15,11.15,0,0,0,1105.07,202.47Z" transform="translate(-1060.37 -157.31)" style="fill:#acbbbf"/><path d="M1145.64,351.88c3.81-1.84,5.49-5.84,5.78-9.82,0-.18-.26-.2-.3,0a14.67,14.67,0,0,1-2.32,4.45.38.38,0,0,0-.51,0,11.08,11.08,0,0,1-3.31,2.11,8.2,8.2,0,0,0-1,.35,4.83,4.83,0,0,1-3.58-.23c-1.29-.71-1.56-2.23-2.06-3.57-.3-3.37,1.68-7.54,5.51-7.63a.09.09,0,0,0,0-.16,4,4,0,0,0-4,.4.85.85,0,0,0-.81-.68c-3,0-5.11,3.44-5.4,6.12a9.13,9.13,0,0,0,3.3,8.27C1139.65,353.5,1142.74,353.29,1145.64,351.88Z" transform="translate(-1060.37 -157.31)" style="fill:#acbbbf"/><path d="M1107,291.94c9.26,2.84,23-6.53,17.6-16.83a.91.91,0,0,0-1.68.45c-.08,2.57-.09,4.89-1,7.09a24.6,24.6,0,0,0-1.92-10.15c-.08-.22-.44-.21-.43.06.12,3.91,1.25,8-.48,11.67a7.12,7.12,0,0,1-3.14,3.23,11,11,0,0,0,2.74-7.56c-.59-7.17-8.61-10.43-14.67-7.88a7.39,7.39,0,0,0-4.36,4.59,11.41,11.41,0,0,0-1.32,5C1098.07,287,1102.28,290.49,1107,291.94Zm7.91-14.47a7.08,7.08,0,0,1,.65,1.29l-.3-.2c-.08-.11-.15-.24-.23-.35a2.35,2.35,0,0,0-.13-.57A1,1,0,0,0,1114.94,277.47ZM1111,285l.12-.1a4.56,4.56,0,0,0,.64,0,3.14,3.14,0,0,1-1.38.38A1.78,1.78,0,0,0,1111,285Zm-4-.88a1.54,1.54,0,0,0-.54.59c-.09-.16-.17-.32-.25-.48A4.07,4.07,0,0,0,1107,284.09Zm-2.75-9,.14-.09,0,.1-.26.19-.06,0C1104.09,275.16,1104.15,275.1,1104.23,275.05Z" transform="translate(-1060.37 -157.31)" style="fill:#acbbbf"/><path d="M1107.52,267.66a.44.44,0,0,0,0-.87,18.1,18.1,0,0,0-5.17.39,30.22,30.22,0,0,1,8.6-2.26c.39-.05.32-.62,0-.72-5.6-1.83-10.86.47-15.28,4.18-3.61,3-5.24,11.14-2.29,15a1.06,1.06,0,0,0,.45.34,9.81,9.81,0,0,0,1.42,2.88.7.7,0,0,0,1.29-.35c.1-3.51-1.33-6.67-.61-10.26C1097,270.76,1102.77,268.3,1107.52,267.66Z" transform="translate(-1060.37 -157.31)" style="fill:#acbbbf"/><path d="M1232.91,310.76c-.54.28-.16,1.22.42,1,2.4-1,6-1.94,7.36-4.4,1.83-3.32,1.65-6.93.85-10.53-1.58-7.14-7.17-13.69-14.27-15.61-4.39-1.18-8.81.45-12.31,3.29-.38.21-.75.44-1.12.69-4.58,1.52-6.73,8.89-7,13.05-.4,5.74,4,15.17,10.89,14,.64-.11.58-.94.16-1.25-1.28-.93-2.6-1.6-3.85-2.47l.09,0a.3.3,0,0,0,.34-.45,14.4,14.4,0,0,0,5.29,2.91c.41.13.78-.45.43-.74-4.23-3.66-8.3-8.28-8.36-13.36.6,3,1.83,5.92,3,7.11a13.77,13.77,0,0,0,5.88,3.57c.12.06.24.13.37.18a.46.46,0,0,0,.28,0,13.29,13.29,0,0,0,14.38-5.57c.4-.61-.45-1.14-.94-.73a17.6,17.6,0,0,1-4.22,2.66,6.23,6.23,0,0,0,.32-.63l.38-.25a8.55,8.55,0,0,0,3.16-1.54,7.14,7.14,0,0,0,2.31-3.81,9,9,0,0,1-.8,5c-1.88,3.83-6.76,6.07-9.84,8.9a.16.16,0,0,0,.16.27c5.47-1.75,10.73-4.55,12.82-10.24a9.2,9.2,0,0,0,.45-2,15.49,15.49,0,0,1-.06,4.46C1238.85,307.8,1235.71,309.3,1232.91,310.76ZM1227,286.71a.49.49,0,0,0,0-.12l.31,0a.56.56,0,0,0,.23-.12c.26.1.51.22.76.34a.48.48,0,0,0-.33.33,5.86,5.86,0,0,1-3.91,4.23,5.12,5.12,0,0,1-1.06.24l.62-.26C1225.61,290.39,1226.34,288.59,1227,286.71Zm-4.09-.17c.43,0,.85,0,1.27.07a6,6,0,0,1-2,.43Zm-5.74,2.5a16.13,16.13,0,0,0-1.47,7.31.57.57,0,0,0-.34.24,14.52,14.52,0,0,1,.08-5,5.2,5.2,0,0,1,2.16-3.32C1217.48,288.51,1217.34,288.79,1217.21,289Zm2.54,12.77-.06-.14a.41.41,0,0,0,.22,0l1.06.66A5,5,0,0,1,1219.75,301.81Zm1.06-12.39a.08.08,0,0,0,0-.05,10,10,0,0,0,2-.23l.19-.05-.5.17A7.67,7.67,0,0,1,1220.81,289.42Zm4.35,13.05a1.09,1.09,0,0,0-.05-.17,14.07,14.07,0,0,0,1.83-.13A16.94,16.94,0,0,1,1225.16,302.47Zm4.76-13.74a2.8,2.8,0,0,0-.06.28.33.33,0,0,0-.08.22,1.47,1.47,0,0,1,0,.21c-.06.34-.1.69-.13,1a6.89,6.89,0,0,1-3.37,3.94c-1.38.14-2.82-.1-4.15.17l-.12-.13a12.7,12.7,0,0,0,3.75-1.27c2.27-1.21,3.07-3.54,3.27-5.95a.15.15,0,0,0,0-.07,10.18,10.18,0,0,1,1.31,1.15A.56.56,0,0,0,1229.92,288.73Zm1.4.71a20.75,20.75,0,0,1,2,3.27.8.8,0,0,0,.22.26,16.16,16.16,0,0,1-2.32,1.65C1232.05,293.13,1231.8,291.22,1231.32,289.44Zm4.64,6.64a7.37,7.37,0,0,1-2.07,3,1.13,1.13,0,0,0,0-.18,6.53,6.53,0,0,0,1.26-1.85.39.39,0,0,0-.53-.53c-.6.3-1.19.57-1.79.83a6.74,6.74,0,0,0,.55-.84.61.61,0,0,0-.21-.83,12.31,12.31,0,0,0,1.49-2.2.53.53,0,0,0,0-.5.73.73,0,0,0,.24-.22,13.91,13.91,0,0,1,1.31,2.93A.66.66,0,0,0,1236,296.08Z" transform="translate(-1060.37 -157.31)" style="fill:#acbbbf"/><path d="M1217.14,276.51a21.2,21.2,0,0,0-17.09,13.11c-2.37,6.32-3.09,16.8,2.19,21.88.31.3.86-.09.61-.47-3.34-5.16-2.95-13.95-1-19.53,2.72-8,10.59-12,18.48-12.56,8.35-.59,16.09,1.47,22.21,7.24,5.72,5.38,3.84,14.9,4.13,21.71a.22.22,0,0,0,.43.06c3-7.16-.1-17.8-4.34-23.86C1237.3,276.36,1225.59,275.46,1217.14,276.51Z" transform="translate(-1060.37 -157.31)" style="fill:#acbbbf"/><path d="M1205.17,308.56c.77,9.31,14.16,13.22,21.67,13.53a27.68,27.68,0,0,0,8.18-.94c-6.4,3-13.58,2.69-21.44,1.51a.24.24,0,0,0-.13.47c6.69,2.82,12.8,4.2,19.83,1.72,4.59-1.62,9-4.45,10.82-9.13a.47.47,0,0,0,0-.33,10.11,10.11,0,0,0,1.77-5.5s-.06,0-.06,0c-1.34,8.08-13.9,10.51-20.42,10-8.52-.65-13.93-5.94-19.63-11.58C1205.56,308.11,1205.14,308.25,1205.17,308.56Z" transform="translate(-1060.37 -157.31)" style="fill:#acbbbf"/><path d="M1240.86,265.78c4.37-1,3.61-8.1.7-10.19-.56-.4-1.23.26-1.09.83.27,1.1,1.56,7.81-1.09,6.11-1.65-1-2.83-3.21-3.67-4.92a8.76,8.76,0,0,1-.49-5.75c.37-1.54,2.41-3.83,4.19-2.26,1,.85,1.26,2.32,2.13,3.27.33.35.78,0,.73-.42-.49-3.39-4-7.26-7.36-4.09-2.8,2.62-2.83,7.19-1.37,10.52C1234.62,261.33,1237.43,266.56,1240.86,265.78Z" transform="translate(-1060.37 -157.31)" style="fill:#acbbbf"/><path d="M1100.22,247.23c.19-.29-.22-.55-.46-.35-3.14,2.62-6.9,2.17-10.15.15a11.56,11.56,0,0,1-3.78-3.93c-1.36-2.25-.93-4.65-1-7.11,0-.67-1-1-1.33-.36C1079.28,244.4,1094.21,256.2,1100.22,247.23Z" transform="translate(-1060.37 -157.31)" style="fill:#acbbbf"/><path d="M1201,264.86a11.08,11.08,0,0,0,5.13-1.1.62.62,0,0,0,0-1.07,7.16,7.16,0,0,0-2-.54,3.06,3.06,0,0,0,1.81-.8.65.65,0,0,0,0-.91c-1.1-1.08-2.78-.49-4.2-.45-1.79.05-3.49-.67-5.25-.87a.45.45,0,0,0-.23.83,20.83,20.83,0,0,0,4.58,2l.53.1c-.89,0-1.79.08-2.68.05-3.44-.12-7-1.72-10-3.27a.42.42,0,0,0-.43.73,39.2,39.2,0,0,0,5.2,3.19,27.7,27.7,0,0,1-8.11-.92c-7.1-2.31-10.16-10.94-7.28-17.48.11-.25-.14-.61-.41-.42-4.71,3.31-2.38,12.31.86,16,4.89,5.54,14.85,7.43,21.86,5.5A.84.84,0,0,0,1201,264.86Z" transform="translate(-1060.37 -157.31)" style="fill:#acbbbf"/><path d="M1186.24,322c4.06-3.63,3.12-8.53-.21-12.42a10.54,10.54,0,0,0-6.27-3.24,2.88,2.88,0,0,0-1.12-.17,23.17,23.17,0,0,0-6.55.22c-4.88.84-9.47,4.42-10.83,9.23-1.25,4.46,2.89,9.95,7.1,10.88a.65.65,0,0,0,.75-.54,4.61,4.61,0,0,0,1.74.28.64.64,0,0,0,.55-.95c-1.26-2-2.92-3.42-4-5.3a.74.74,0,0,0,.81-.52,3.48,3.48,0,0,0,.22-1.12c.73,1.9,2.22,4.48,4.49,3.92a.34.34,0,0,0,.08-.62c-1.33-.76-2-2.53-2.66-3.86-1.25-2.57-.34-4.68.4-7.13a11.83,11.83,0,0,1,1.36-.38,9.59,9.59,0,0,0-.79,1.5c-1.13,2.81-.8,5.95,1.94,7.59.47.28,1-.42.59-.77-2-1.58-1.81-4-.87-6.12a5,5,0,0,1,.63-1,18.8,18.8,0,0,0,0,3.82,2.66,2.66,0,0,0,1.81,2.45c.41.14.78-.47.43-.75-1.21-1-.55-4.1-.32-5.46a3.65,3.65,0,0,1,.69-1.57h.26a12,12,0,0,0-.55,3.22,3.51,3.51,0,0,0,1.24,3.41c.66.48,1.25-.41,1-1a6.22,6.22,0,0,1,.57-5.36,3,3,0,0,1,1.84-.82,4.76,4.76,0,0,0-.75.64,4,4,0,0,0-1,2.9.5.5,0,0,0,.47.43,2.93,2.93,0,0,0,.48,1.53.57.57,0,0,0,.88.09.48.48,0,0,0,.61,0,2.74,2.74,0,0,1,2.49-.41,2.71,2.71,0,0,0-2,1.46.55.55,0,0,0,1,.56,1.87,1.87,0,0,1,1.76-.57c.66,0,1.19.5,1.86.31a.47.47,0,0,0,.16-.1,9.09,9.09,0,0,1-1.07,5.13A.56.56,0,0,0,1186.24,322ZM1183.51,311h0Zm-1.39-1,.12.07-.33.07Zm-1.52,4.06a1.57,1.57,0,0,1-.13-1.07,8.11,8.11,0,0,1,2.4-.25c.58,0,1.61-.28,1.43-1.06a8.43,8.43,0,0,1,1,1.25C1183.73,312.7,1181.66,313,1180.6,314.14Zm5,.52a3.16,3.16,0,0,0,.32,0,.93.93,0,0,0,.2-.08,4,4,0,0,1,.15.49A1.83,1.83,0,0,0,1185.55,314.66Z" transform="translate(-1060.37 -157.31)" style="fill:#acbbbf"/><path d="M1196,352c-2.22-.31-4.15,1.33-6.29,1.84a8.17,8.17,0,0,1-3.74-.07,15.35,15.35,0,0,0,6.89-1.6.71.71,0,0,0,0-1.22c-1.61-.7-3.37-.39-5.12-.18a.46.46,0,0,0-.41-.44,15.37,15.37,0,0,1-3.24-1.39,2.07,2.07,0,0,1-1.15-1.45,4.91,4.91,0,0,0,2.74,1.39,6.18,6.18,0,0,0,1.36,0c.34,0,.61-.32.91-.46a.23.23,0,0,0,0-.41c-.42-.07-1-.65-1.34-.88-.55-.36-1.07-.82-1.61-1.2a3.28,3.28,0,0,1-.51-.43l.17-.06a1.7,1.7,0,0,0,.29.31,2.38,2.38,0,0,0,2.39.35,2.26,2.26,0,0,0,.65.53.47.47,0,0,0,.47-.81,1.46,1.46,0,0,1-.7-.87,14.08,14.08,0,0,1,6.82,1.8.61.61,0,0,0,.74-.95,13.1,13.1,0,0,0-2.59-1.93,1.25,1.25,0,0,0-.63-.91c-3.35-1.43-8-3.16-11.31-.79a5,5,0,0,0-.72.66,8.88,8.88,0,0,0-2.32,4.09,6.16,6.16,0,0,0,0,1.62,4.66,4.66,0,0,0,0,1.58c.62,3.61,4.27,5.46,7.49,6.34s10.13.22,11.24-3.74A.59.59,0,0,0,1196,352Z" transform="translate(-1060.37 -157.31)" style="fill:#acbbbf"/><path d="M1176.67,223.26c.45-.4-.12-1-.61-.79l-.38.16a16.77,16.77,0,0,0,1.62-2c2.59-3.74.62-8.47,0-12.38a.37.37,0,0,0-.71,0,3.5,3.5,0,0,0,0,2.24c.5,2.67,1.07,4.91-.07,7.6a8,8,0,0,1-4.54,4.48c-1.07.38-1.67.37-2.36,1a11.21,11.21,0,0,1-5.5-1.82.79.79,0,0,0,.47-.63l.06-.56.12.12a6.42,6.42,0,0,0,7.76-.51.31.31,0,0,0-.14-.5,4.69,4.69,0,0,0-1.26-.23,3.77,3.77,0,0,0,1.78-.5c1.75-1,2.31-3.59,2.06-5.44a4.72,4.72,0,0,0-.53-1.64.4.4,0,0,0,.54-.54,4.23,4.23,0,0,0-2.13-2.35,3.25,3.25,0,0,1,2.19.55c.35.23.73-.29.44-.58-1.27-1.27-2.25-2.34-4.24-1.91a8.45,8.45,0,0,0-4.82,3.31c-.09.11-.17.24-.25.36h0c0-.07.08-.15.13-.22a11,11,0,0,1,3.65-3.59c1.26-.68,1.92-.58,2.9-1.55a.31.31,0,0,0,0-.44c-2.55-2.54-7.24,2.41-8.54,4.05a12.28,12.28,0,0,0-1.4,11.79,7.48,7.48,0,0,1-1.23-1.6c-2.36-4,.26-8.84,1.46-12.75a.41.41,0,0,0-.68-.4c-4,3.8-5.18,11-2,15.64C1163.75,226.71,1172.32,227.08,1176.67,223.26Zm-4.25-10.47h0l.46.12.09.27a.52.52,0,0,0-.35,0,1.69,1.69,0,0,0-.29.17C1172.36,213.18,1172.38,213,1172.42,212.79Zm-3,3s0,.08,0,.11h0l0,0h-.14l-.07-.05A.78.78,0,0,0,1169.46,215.8Zm-.55,3.11a3.76,3.76,0,0,0,1.52.55c-.57,0-1.14,0-1.7,0a3.11,3.11,0,0,0-.35-.37A3.44,3.44,0,0,0,1168.91,218.91Z" transform="translate(-1060.37 -157.31)" style="fill:#acbbbf"/><path d="M1167.23,275.34c-1.47-.13-3.91.55-4.22,2.28a4.17,4.17,0,0,0,2.24,4.4c.51.25,1.12-.43.64-.83-1-.8-1.64-2.87-.1-3.49a5.59,5.59,0,0,1,3.6.29l.17.05a7.24,7.24,0,0,0-1.75.16,2.24,2.24,0,0,0-1.31,1c-.18.28-.06.92.35.95s.45-.12.7-.15a6.93,6.93,0,0,1,1.29.07l.22,0a.69.69,0,0,0,.46,1.16,3.63,3.63,0,0,1,2.35,1.18v.06a.55.55,0,0,0-.23.41c0,.4,0,.79-.07,1.18a1.81,1.81,0,0,1-.41-.69c-.21-.69-1.41-.59-1.31.18a3.52,3.52,0,0,0,.68,1.69.62.62,0,0,0,.26.87l0,.05a13,13,0,0,1-1.82-2.81c-.26-.64-1.3-.81-1.47,0-.79,3.64,4,8.06,7.53,6.34,2.88-1.39,2.39-6.44,1.64-8.85C1175.56,277.44,1170.4,275.62,1167.23,275.34Zm6.2,9h0l0,.09a.94.94,0,0,1,0,.16l-.12,0A1.33,1.33,0,0,0,1173.43,284.3Zm-1.78-4.57,0,0a.75.75,0,0,0,.11-.79,10.17,10.17,0,0,1,1.19.72C1172.49,279.64,1172,279.7,1171.65,279.73Zm1.07,8.12a1.94,1.94,0,0,0,.24-.15,1.68,1.68,0,0,0,1.19-.37l.06.15A1.15,1.15,0,0,1,1172.72,287.85Zm1.49-6.22c-.2-.32-.4-.61-.61-.89a2.32,2.32,0,0,0,.37-.13,3.59,3.59,0,0,1,.6,1Zm.67,1.21h0a.64.64,0,0,0,0,.07Z" transform="translate(-1060.37 -157.31)" style="fill:#acbbbf"/><path d="M1278.38,297.41a22.62,22.62,0,0,1-1.65-7.26,106.79,106.79,0,0,0-11.13-73.43,16.07,16.07,0,0,1,.56-5.82,7.69,7.69,0,0,0,.46-4.29c-1.07-3.57-3.78-5.87-6.58-8.16-4.16-3.4-6.32-8.45-9.9-12.37-2.59-2.83-7.19-.3-10.29-1.19a1.07,1.07,0,0,0-1,.21,106.84,106.84,0,0,0-50-22c-2.06-1.08-1.6-2.48-3-4-1.85-2.09-4.33-1.84-6.95-1.59s-6-.18-8.61.28c-3.26.57-5.49,2.82-8.16,4.49a106.37,106.37,0,0,0-13.8,2.23,15,15,0,0,1-5.44-1.79,11.17,11.17,0,0,0-4.4-1.91c-3.83-.67-7.85,2.82-10.66,4.86-4,2.9-10,2.77-13.79,5.91-3.11,2.61-1.69,6.3-3.63,9.52a1,1,0,0,0-.16.6,106.65,106.65,0,0,0-21.66,20.68,40.82,40.82,0,0,0-7.25,3.52c-3.09,1.65-4.69,4.69-6.59,7.47-1.61,2.36-4.17,5.19-4.32,8.23s1.64,5.3,2.53,8.05a106.7,106.7,0,0,0-7.33,38.81c0,.74,0,1.48,0,2.21a11.11,11.11,0,0,1-2.23,3.55,10.21,10.21,0,0,0-2.46,3.05c-1.56,3.93.17,7.75,1.78,11.4,2.31,5.22,1.28,11.41,3.78,16.45,1.23,2.48,4.77,2.65,7.11,3.95a106.21,106.21,0,0,0,32,42.65c.87,2.17,1.66,5.52,2.15,6.6a14.25,14.25,0,0,0,6.13,6.83c3.08,1.79,5.71,3.67,9.29,4.25,2.89.48,4.6-2.15,7.11-2.86a106.35,106.35,0,0,0,42,8.59,108.37,108.37,0,0,0,16.81-1.34,6.52,6.52,0,0,0,2.09.23c2.56.1,4.14,2.65,6.26,3.69,2.41,1.19,5.89-1,8-2,3.06-1.56,7.58-2.16,10.11-4.47,2.68-2.45,4-5.63,6.33-8.3.74-.39,1.47-.8,2.21-1.21l.37-.1a.83.83,0,0,0,.5-.38,106.9,106.9,0,0,0,37.33-35.47c.36-.56.69-1.13,1-1.69.79-.14,1.07-.36,2-1.25,2.1-2.14,4.79-2.05,7.34-3.12,2.29-.95,2.94-4.51,3.45-6.59.89-3.69,2.65-7.33,3.17-11A9.6,9.6,0,0,0,1278.38,297.41ZM1169.46,160.1c1.6-.67,4.09.09,5.82,0,3.53-.17,7.81-2,9.8,2.31a.57.57,0,0,0,.08.13,106.13,106.13,0,0,0-12.87-.8c-1.89,0-3.78.07-5.66.16A8.61,8.61,0,0,1,1169.46,160.1Zm-92.84,54.32c2.08-2.93,3.58-5.55,6.8-7.4l2.8-1.57a107.22,107.22,0,0,0-12,21.14c-.17-.31-.34-.62-.53-1C1071.26,221.44,1074.27,217.74,1076.62,214.42ZM1116.17,364c-3.17-1.83-5.28-3.2-7.1-6.52-.85-1.55-1.47-3.22-2.17-4.84,1.43,1.11,2.87,2.19,4.35,3.23a107.79,107.79,0,0,0,16.07,9.25C1123,367.48,1120.41,366.49,1116.17,364Zm101.46-2.37v0c-.65.25-1.28.5-1.91.71-1.65.56-4.45.15-5,2.28a.26.26,0,0,0,.31.32c1.94-.38,4-.55,5.87-1.11l.8-.24c-.83,1.31-1.53,2.68-2.33,4-1.63,2.73-5.3,2.92-7.91,4-3.54,1.52-7.5,5.42-11,2a8.33,8.33,0,0,0-2.33-1.62,23.83,23.83,0,0,0,4.75-2.28.39.39,0,0,0-.19-.72c-2.41-.17-5,.79-7.29,1.35a10.94,10.94,0,0,1-1.41.25l0-.13a103.78,103.78,0,0,1-111.5-58c.16-1.79-1-3.44-1.78-5.05-1-2.16-2.55-4.32-3.11-6.64a.4.4,0,0,0-.77,0c-.63,1.92.39,3.53,1.18,5.27a15.73,15.73,0,0,0-3.11-1.09c-4.22-1.15-4-11.53-4.82-15.18-1.21-5.33-5.65-8.74-1-14.05a13.61,13.61,0,0,0,1.19-1.58c.18,1.2.44,2.38.7,3.52.55,2.42.72,5.06,2.09,7.2a.46.46,0,0,0,.79-.46c-.95-2.23-.47-4.93-.87-7.3a47.68,47.68,0,0,1-.41-4.94h.12c0-1.26-.07-2.56-.07-3.85a103.85,103.85,0,0,1,38.91-81,.94.94,0,0,0,.44,0,5.2,5.2,0,0,0,2.23-1.49,26.24,26.24,0,0,1,3.93-2.56,16.25,16.25,0,0,0,3-2.15c.93-.89,1.65-2.44,3-2.84a.44.44,0,0,0,0-.84c-2.46-.71-4.63,2.19-6.61,3.24l-.1,0a10.32,10.32,0,0,0,.84-4.09c.26-4.6,10.2-6.54,14-8.27,4.89-2.25,7.54-7.18,13.54-3.79a8.91,8.91,0,0,0,4.35,1.34l0,.12c-1,.29-1.84.58-2.49.77-1.6.46-4.16,1.11-4.42,3.06,0,.24.26.31.43.24a26.47,26.47,0,0,1,5.71-1.72c1.54-.27,3.07-.59,4.61-.88s2.52-.07,3.65-1a.44.44,0,0,0,.13-.18,103.64,103.64,0,0,1,84.28,21.8l0,0c.37.34.75.67,1.11,1,2,1.94,3.38,4.2,5.67,5.81.26.19.59-.17.43-.43-.7-1.14-1.17-2.38-1.77-3.58a16.8,16.8,0,0,0-2.68-3.34c1.75.29,3.35-.12,5.37-.39,3.69-.49,8.49,10,11.17,12.25,3.43,2.91,7.73,5.57,6.52,10.73-.64,2.74-.76,4.51.09,6.55a40.43,40.43,0,0,0-4.13-5.4c-.11-.12-.26,0-.21.15,1.12,2.4,2.11,4.83,3.32,7.19a24.48,24.48,0,0,0,2.94,5,103.75,103.75,0,0,1-48.23,137.93Zm58.94-59c-.24,1.71-1.52,3.5-2,5.19-1.24,4.14-.65,9.46-6,10a7.08,7.08,0,0,0-2,.54,106,106,0,0,0,8.72-22C1276,298.53,1277,300,1276.57,302.71Z" transform="translate(-1060.37 -157.31)" style="fill:#acbbbf"/><path d="M1106.82,334.6c1.8-6.54-6.74-15.21-11.44-18.37-.31-.21-.77.22-.53.53,1.7,2.22,3.43,4.36,5,6.62h0a.39.39,0,0,0-.38-.18c-1-.87-2.21-1.72-2.6-3.06a.36.36,0,0,0-.7.2,5.36,5.36,0,0,0,1.2,2.46.44.44,0,0,0-.29.65c-.65-1-1.26-2-1.89-3.08a.4.4,0,0,0-.74.2c.1,2.26,1.45,4.55,2.93,6.48l-.59-.67c-1.37-1.6-1.84-3.66-3-5.32a28.75,28.75,0,0,0-1.78-3.92c-.09-.15-.37-.09-.35.1a29.68,29.68,0,0,0,1.42,6.7.31.31,0,0,0-.21.39q.14.39.3.78a40.81,40.81,0,0,1-3.5-9c-.15-.59-.92-.39-1,.14a10.14,10.14,0,0,0,.09,3.06,27,27,0,0,1-1.42-5.2c-.11-.62-1-.4-1,.14a11.25,11.25,0,0,0,0,1.53c-.66-2.76,1.4-4.46,4-2.89a.36.36,0,0,0,.43-.56c-1.43-1.34-1.79-3.39-4.19-2.73-1.92.52-2.56,2.31-2.69,4.07-.6-3,0-6,4-6.46a.3.3,0,0,0,.15-.55c-5.18-3.29-7,4.59-6.41,8.24.5,3.25,3.09,6.14,5.2,8.48.77.86,1.56,1.85,2.38,2.84,1.33,1.85,2.69,3.52,3.75,4.84C1095.14,333.8,1104.82,341.87,1106.82,334.6Zm-8.58-1.73s0,0,0,0a8,8,0,0,0-.6-.56,18.11,18.11,0,0,1-2.25-3.16c.71,1.05,1.49,2.07,2.26,3a7.24,7.24,0,0,0,1.19,1.13Zm2.73-6.73h0l0,0Z" transform="translate(-1060.37 -157.31)" style="fill:#acbbbf"/><path d="M1107.46,320.93c2,3.19,3.9,8,4.15,11.77a10.91,10.91,0,0,1,0,2.06c-.7-3.1-2.56-6-4-8.71a34.64,34.64,0,0,0-9.25-11.31c-.17-.13-.32.14-.21.28a91.86,91.86,0,0,1,9.7,14.68c1,2,4.71,7.95.78,9.54-3.1,1.26-6.19-.22-8.73-1.84-.52-.33-1,.3-.79.78.8,1.64,3,2.78,5.33,3.18a.44.44,0,0,0,.13.24c3.88,3.58,8.82-2.41,9.19-6.06.55-5.34-3-10.78-6.1-14.7C1107.52,320.78,1107.42,320.86,1107.46,320.93Z" transform="translate(-1060.37 -157.31)" style="fill:#acbbbf"/><path d="M1214,186.15c3,1.87,5.92,3.5,8.41,6.15,2.26,2.4,2.21,6.84-1.64,7.15-2.14.18-4.58-.68-6.6-1.3-3.89-1.2-7.35-3.75-10.57-6.14a27.31,27.31,0,0,1-3.7-3.27c-2-1.81-1.7-3.52.86-5.14a.87.87,0,0,0-.16.44c-.21,3.63,1.85,6.34,4.77,8.24,3.64,2.36,8.56,4.64,12.93,3.55a1,1,0,0,0,.75-1c.1-2.64-2.66-4.82-5-6.1a5.52,5.52,0,0,1-1.26-1.41.61.61,0,0,0-1.06.61c-.38,0-.74.45-.49.8a14.4,14.4,0,0,0,2.89,2.73c.22.17.45.39.7.61a6.19,6.19,0,0,1-.65-.39,40.71,40.71,0,0,1-3.8-3,.47.47,0,0,0-.66.66c.34.38.7.75,1,1.12a30.77,30.77,0,0,1-3.19-2.85.41.41,0,0,0-.71.29,14.05,14.05,0,0,1-2-2.95c-.21-.41-.76-.11-.7.29a9.25,9.25,0,0,0,2.19,4.27,6.19,6.19,0,0,1-2.14-3.54c-.07-.53-.85-.73-1-.13a3.12,3.12,0,0,0,.08,1.66,7.7,7.7,0,0,1-.54-1.12,8,8,0,0,1-.34-1.67c0-.06-1.84-.47,1,.1.25.05.43-.31.18-.42a12.06,12.06,0,0,1-1.64-1.06.74.74,0,0,0-.44-.11,16.89,16.89,0,0,1,1.59-.78,38.54,38.54,0,0,1,4.66.71.52.52,0,0,0,.28-1c-3.91-1-6-2.28-9.84-.28-2,1.05-2.2,3.31-1.61,5.21,1.7,5.48,10.89,10.76,15.65,12.65,4,1.59,13.77,4.32,14.8-2.5.81-5.41-7.88-11.61-12.27-12.62A.84.84,0,0,0,1214,186.15Z" transform="translate(-1060.37 -157.31)" style="fill:#acbbbf"/><path d="M1194.52,176.51a.05.05,0,1,0,0,.1A.05.05,0,0,0,1194.52,176.51Z" transform="translate(-1060.37 -157.31)" style="fill:#231f20"/><path d="M1192.2,186.76c2.14,4.29,7.14,8.92,11.88,10.09.28.07.62-.26.41-.54-1.72-2.27-4.52-3.58-6.7-5.37a17.24,17.24,0,0,1-3.67-4.18c-1.8-2.85-1.12-7.3,2.86-7.57a.41.41,0,0,0,0-.81C1192.49,178.24,1190.3,183,1192.2,186.76Z" transform="translate(-1060.37 -157.31)" style="fill:#acbbbf"/><path d="M1094.12,245.21a5.73,5.73,0,0,0,5.09-1.48,6.5,6.5,0,0,0,1-.95,8.08,8.08,0,0,0,1.32-2.66c0-.12,0-.23.08-.35a13.57,13.57,0,0,0,1.92-9c-.16-.83-1.26-.52-1.35.19,0,.07,0,.14,0,.22a.56.56,0,0,0-.62.35.55.55,0,0,0-.66.14.76.76,0,0,0-.51-.07.66.66,0,0,0-1.3.14,4.92,4.92,0,0,0,.17,1.27.56.56,0,0,0-.08.3s0,.1,0,.15a.65.65,0,0,0-.49-.05c0-.21,0-.42,0-.62a.49.49,0,0,0-1,0,22.44,22.44,0,0,0,.06,2.84.71.71,0,0,0-.35-.1,5,5,0,0,1,.29-4.25c.42-.6-.54-1.33-1-.78l0,0a.57.57,0,0,0-.82.29,10.82,10.82,0,0,0-.68,3.57,1.18,1.18,0,0,0-.14-.22c0-.93-.16-1.89-.17-2.81l.2,0c.66,0,.87-1.06.16-1.21h-.07a14.48,14.48,0,0,1,1.09-2.3c.32-.53-.46-1-.8-.47l-.06.08-.06,0c-1,.12-1.23,1.44-1.32,2.48l-.21.48a2,2,0,0,0-.63.88c0-.3,0-.6.08-.89a3,3,0,0,1,.52-.49.55.55,0,0,0-.27-1c.13-.46.29-.77.52-.77a.52.52,0,0,0,0-1,1.54,1.54,0,0,0-.61,0c.46-.85,1-1.53,1.4-1.59a.57.57,0,0,0,.49-.77,11,11,0,0,1,4.21-1,.13.13,0,0,0,.06-.23c-3.66-2.26-7.34.38-9.53,3.43a10.65,10.65,0,0,0-1.23,2.24c-2,2.85-1.12,8.28,0,10.9C1089.82,242.59,1091.4,244.74,1094.12,245.21Zm5.53-5.68-.09.16-.33-.47A2.53,2.53,0,0,0,1099.65,239.53Zm-1.63-2.32s0,0,0,0v0Zm-.65,4.28-.26.09-.23-.36A2.12,2.12,0,0,0,1097.37,241.49Zm-2-3.69c0,.25.09.51.16.78-.17-.4-.31-.8-.45-1.2Zm-5.31-2.07a8.16,8.16,0,0,0,1,3.41l-.18-.28a7.4,7.4,0,0,1-1.09-4.22C1089.86,235,1089.93,235.36,1090,235.73Z" transform="translate(-1060.37 -157.31)" style="fill:#acbbbf"/><path d="M1245.19,218.12c.53.34,1-.22,1-.73-.31-2.07-1.75-3.29-.69-5.62s3.55-2.26,5.53-1.3c2.36,1.17,4,3.79,6.28,5.2.58.36,1-.5.52-.89-2.08-1.59-2.94-4.25-5.15-5.73a6.42,6.42,0,0,0-5.91-1.12C1242.47,209.34,1241.42,215.65,1245.19,218.12Z" transform="translate(-1060.37 -157.31)" style="fill:#acbbbf"/><path d="M1256.39,218.54a.41.41,0,0,0-.62.35,33.24,33.24,0,0,0,1,4.14.48.48,0,0,0-.17.05c-.14-.34-.27-.67-.36-1a.41.41,0,0,0-.65-.19l-.67-.93a.44.44,0,0,0-.56-.18.46.46,0,0,0-.61.53,12.62,12.62,0,0,0,.87,2.78,18.12,18.12,0,0,1-1.79-3.08c-.17-.37-.74-.1-.64.27.15.59.32,1.18.52,1.76a11.31,11.31,0,0,1-1.66-3,.54.54,0,0,0-1.06.14q0,.27,0,.57a8.37,8.37,0,0,1-.57-1.64.27.27,0,0,0-.52,0,2.46,2.46,0,0,0-.07.29c-.34-1.54-.49-3.14-.8-4.7a.55.55,0,0,0-1.06,0,15.32,15.32,0,0,0,2.63,10.76c1.34,2,4.63,5.12,7.33,4.53C1261.54,229,1259.08,220.33,1256.39,218.54Z" transform="translate(-1060.37 -157.31)" style="fill:#acbbbf"/><path d="M1256.76,235c-3.59-.82-6.22-1.73-8.84-4.49-2.3-2.41-3.94-5.52-5.54-8.41a.23.23,0,0,0-.43.12c.44,5.68,8.06,16.5,14.81,14.55A.92.92,0,0,0,1256.76,235Z" transform="translate(-1060.37 -157.31)" style="fill:#acbbbf"/><path d="M1272.88,270.63a1.17,1.17,0,0,0-1-.6c-.55.06-1.06.12-1.6.21a1,1,0,0,0-.75,1c-.13.71-.27,1.42-.4,2.13a.78.78,0,0,0,1.42.59c.31-.59.46-.89.59-1.19,1.14,1.46.59,5.4.35,6.93-.39,2.52-3.18,4.51-3.64.94-.38-3-1.43-5.64-.16-8.62,2.9-6.78,1.48-13.21-1.64-19.88-.1-.22-.4-.06-.36.15a110.63,110.63,0,0,1,1.72,11.31c.28,3.78-1.65,6.4-2.68,9.83-.78,2.58.65,6.28,1,8.81.17,1.35.19,2.76,1.52,3.54,2.46,1.44,5.25-1.4,6-3.48A15.43,15.43,0,0,0,1272.88,270.63Z" transform="translate(-1060.37 -157.31)" style="fill:#acbbbf"/><path d="M1159.52,365.18a.05.05,0,1,0,0,.1A.05.05,0,0,0,1159.52,365.18Z" transform="translate(-1060.37 -157.31)" style="fill:#231f20"/><path d="M1145.72,289.8c.17-.21.31-.46.47-.7s-.21-.7-.54-.55a1.63,1.63,0,0,1-1.37-.36,3.79,3.79,0,0,1-.88-1.71,3.34,3.34,0,0,1-.16-1.75c0-.06.28-.38.1-.25.15-.1.5-.17.74-.3a.7.7,0,0,0,.35-.66,8.85,8.85,0,0,1,2.63.16.47.47,0,0,0,.25-.9c-1.26-.45-2.29-1.19-3.66-1.29a5.14,5.14,0,0,0-3.61,1.59,3.86,3.86,0,0,0-1,1.56,3,3,0,0,0-.41,2.94c0,.36,0,.71.09,1a7.07,7.07,0,0,0,2.87,4.93c1.25.82,3.63.8,4.49-.54a2.4,2.4,0,0,0,1.68-1.5,4.84,4.84,0,0,0,2.47-2.39.42.42,0,0,0-.66-.51A5.08,5.08,0,0,1,1145.72,289.8Zm-4.68-3.46a.28.28,0,0,0,0-.09c0,.08,0,.15,0,.22Z" transform="translate(-1060.37 -157.31)" style="fill:#acbbbf"/><path d="M1205.94,250.23a.43.43,0,0,0-.72-.3c-1.41,1.17-1.87,2.61-3.76,3.29a13.07,13.07,0,0,1-6.09.4s0-.06,0-.1c2.7.17,5.4-.51,6.47-2.76a.39.39,0,0,0-.61-.47c-.88.68-2.66.89-4.35.85a8.28,8.28,0,0,0,1.53-.5c.43-.19.23-.74-.11-.88-1.54-.62-3.27-.34-4.82-1-1.28-.54-4.1-1.77-3.77-3.54.12-.63,1.87-1.28,1.67-2.08.45-.06.87-.12,1.24-.19a.41.41,0,0,0,0-.79c-3.36-.85-6.88-.88-8.63,2.61a4.45,4.45,0,0,0-.26,3.2c-1-2.12-.21-4.77.1-6.9.06-.45-.3-1.06-.84-.84-4.53,1.87-2.36,9,.26,11.68,4.75,4.8,13.25,5.44,19.4,4.15a.54.54,0,0,0,.29-.82A4.43,4.43,0,0,0,1205.94,250.23Zm-14.67,2.62a7.46,7.46,0,0,1-4.22-2.78,14.46,14.46,0,0,0,4.46,2.84Z" transform="translate(-1060.37 -157.31)" style="fill:#acbbbf"/><path d="M1185.61,254.74a9.1,9.1,0,0,1-2.1-1.76c-.52-.54-.78-1-1.51-1.31a.58.58,0,0,0-.7.41c-.61,1.74,1.58,3.49,2.83,4.33a6.1,6.1,0,0,0,5.51.94c.33-.13.53-.68.11-.86C1188.38,255.9,1186.91,255.46,1185.61,254.74Z" transform="translate(-1060.37 -157.31)" style="fill:#acbbbf"/><path d="M1245.14,327.19c-2.68,2.94-4.23,6.53-6.76,9.57-3,3.59-9.22,5.87-13.53,5.81-3-.05-6.48,2.14-8.85,3.78-2,1.37-5.68,6.76-8.35,3.75a.19.19,0,0,0-.32.13c0,1.81,1.32,2.71,3.17,2.21,4.13-1.1,6.78-4.82,10.72-6.6,3.24-1.47,5.13,0,8-1,2.34-.76,4.14-2.28,6.31-3.38,5.74-2.91,7.6-8.2,10.39-13.62C1246.24,327.31,1245.56,326.73,1245.14,327.19Z" transform="translate(-1060.37 -157.31)" style="fill:#acbbbf"/><path d="M1232.62,333a11.65,11.65,0,0,1-4.22,2c-1.13.33-2.86.51-3.34,1.73a.49.49,0,0,0,.33.58,2.86,2.86,0,0,0,1.89-.29c.89-.28,1.8-.48,2.68-.76a4.37,4.37,0,0,0,3.21-3C1233.28,333,1232.85,332.8,1232.62,333Z" transform="translate(-1060.37 -157.31)" style="fill:#acbbbf"/><path d="M1081,277.35a.58.58,0,0,0-.69.4c-.74,2.18-2.14,5.32-.22,7.23a.6.6,0,0,0,.94-.72l-.45-2.32c-.16-1.81.49-1.71,2,.27.13,1.08,0,2.19.09,3.27s.13,2.32.13,3.48c0,3.38-3.71-1-4.26-1.94-2.06-3.47-.63-6.3-1.12-9.93a12.83,12.83,0,0,0-1.48-4.68c-1.79-3.44-.9-6.62-.1-10.11a.28.28,0,0,0-.54-.15c-.78,2.21-2.4,5.45-1.65,7.9s2.15,4.59,2.5,7.21c.21,1.57-.82,3.51-.55,5.14.61,3.55,2.37,9.29,6.4,10.39C1086.39,294,1085.7,278.52,1081,277.35Z" transform="translate(-1060.37 -157.31)" style="fill:#acbbbf"/><path d="M1141,206.1a.56.56,0,0,0,0-1.08c-4.17-1.35-8.69,1.46-11.58,4.28a16.42,16.42,0,0,0-3.64,5.1c-.89,2.16-1.77,6-4.6,6.32-.18,0-.25.3,0,.34,3.14.7,4.58-2.08,5.65-4.62a19.1,19.1,0,0,1,4.75-6.59C1134.37,207.19,1137.5,207.11,1141,206.1Z" transform="translate(-1060.37 -157.31)" style="fill:#acbbbf"/><path d="M1162.52,172.63c4.18-.46,7.84-1.7,12.16-1.38l.55,0a7.65,7.65,0,0,0-3,2,.46.46,0,0,0,.65.64c3.17-2.72,8.42-1.34,12.11-.62a12.41,12.41,0,0,0,3.81.29c.83.29,1.67.6,2.54,1a27.2,27.2,0,0,0,9.14,2.12c5.47.42,10.81,2,16.19,3a.83.83,0,0,0,.44-1.59,72.84,72.84,0,0,0-13.06-3.29c-2.84-.34-5.67-.47-8.48-1.09a18.14,18.14,0,0,1-3.47-1.21.36.36,0,0,0-.11-.63,9.23,9.23,0,0,0-1.46-.09c-1-.5-2.07-1-3.08-1.4-4-1.62-8.5-1.31-12.73-1.57-4.4-.27-8.8-.21-12.54,2.44C1161.61,171.63,1161.71,172.72,1162.52,172.63Z" transform="translate(-1060.37 -157.31)" style="fill:#acbbbf"/><path d="M1187.3,367.14c-4.77-1.27-8.77-3.73-13.75-4.27-5.75-.63-12.53.27-17.83-2.32-.39-.19-.84.3-.49.63,3.9,3.57,9.46,2.87,14.41,3.19,3.9.26,7.85.52,11.21,2.69a8.34,8.34,0,0,0,6.45.92A.44.44,0,0,0,1187.3,367.14Z" transform="translate(-1060.37 -157.31)" style="fill:#acbbbf"/><path d="M1171.22,368.44a61.76,61.76,0,0,0-15-3.35c-4-.4-8.47-.1-12.21-1.75-.41-.17-4.74-2.38-2-3.51a5.93,5.93,0,0,1,6.94,1.65l-2.77.17a.25.25,0,0,0-.17.42c1.13,1.37,2.85,1,4.51,1a.86.86,0,0,0,.73-1.28c-2-3.38-4.46-4-8.21-3.49-2.24.31-5.2,1.38-3.36,3.92,2.17,3,7.8,3.69,11,4.07,3.91.45,7.78.57,11.67,1.23,3,.51,5.76,1.36,8.83,1.16A.13.13,0,0,0,1171.22,368.44Z" transform="translate(-1060.37 -157.31)" style="fill:#acbbbf"/><path d="M1131.36,323.05c.63.66,1.53-.3,1-1a17.13,17.13,0,0,0-8.36-5.61c-2.85-.92-5.19-1.55-6.91-4.2-1-1.61-1.7-3.5-2.63-5.18a.3.3,0,0,0-.54.23c.67,3.21,1.83,6.54,4.59,8.54a17.24,17.24,0,0,0,5.11,2A17.6,17.6,0,0,1,1131.36,323.05Z" transform="translate(-1060.37 -157.31)" style="fill:#acbbbf"/><path d="M1147.23,323c-1.34-2.81-7.26-7.59-10.52-5.68-2.91,1.7,1.69,5.3,3.27,5.61,1,.2,1.39-1.27.41-1.49s-4.49-3.37-1.52-2.9c1.63.26,3.33,1.66,4.53,2.65.61.51,5.49,5.92,1,6.1-1.55.07-3.4-.83-4.85-1.33-4-1.42-8.5-1.5-12-4.3-1.55-1.25-2.59-2.12-4.66-2.07a.27.27,0,0,0-.07.52c3.42,1.4,5.84,4.29,9.44,5.64a94.24,94.24,0,0,0,10.9,3.1C1147.45,329.92,1148.88,326.5,1147.23,323Z" transform="translate(-1060.37 -157.31)" style="fill:#acbbbf"/><path d="M1127.83,255c.2-.27-.08-.62-.36-.63-1.27-.07-2.3.2-3.4-.7a5.77,5.77,0,0,1-1.74-3.87c-.24-2.68,2.11-6.28,4.89-6.56a.45.45,0,0,0,0-.9c-4.16-.44-6.83,4.3-6.61,8C1120.78,253.2,1125.06,258.76,1127.83,255Z" transform="translate(-1060.37 -157.31)" style="fill:#acbbbf"/></g></g></svg>